<svg width="18" height="18" viewBox="0 0 18 18" fill="none" xmlns="http://www.w3.org/2000/svg">
<g clip-path="url(#clip0)">
<path d="M16.8334 18.0137C17.132 18.0137 17.4307 17.8995 17.6579 17.672C18.114 17.2161 18.114 16.479 17.6579 16.0231L1.99103 0.356001C1.53512 -0.0999089 0.797977 -0.0999089 0.342066 0.356001C-0.114058 0.811911 -0.114058 1.54905 0.342066 2.00496L16.0089 17.672C16.2376 17.9005 16.5349 18.0137 16.8334 18.0137Z" fill="#0039A6"/>
<path d="M1.16655 18.0137C1.46508 18.0137 1.76361 17.8995 1.99103 17.672L17.6579 2.00496C18.114 1.54905 18.114 0.811911 17.6579 0.356001C17.202 -0.0999089 16.4651 -0.0999089 16.0089 0.356001L0.342066 16.0231C-0.114058 16.479 -0.114058 17.2161 0.342066 17.672C0.569489 17.9005 0.868019 18.0137 1.16655 18.0137Z" fill="#0039A6"/>
</g>
<defs>
<clipPath id="clip0">
<rect width="18" height="18" fill="white" transform="matrix(-1 0 0 1 18 0)"/>
</clipPath>
</defs>
</svg>
