<svg width="17" height="14" viewBox="0 0 17 14" fill="none" xmlns="http://www.w3.org/2000/svg">
<path d="M0.641509 1.61001H16.3585C16.7126 1.61001 17 1.24937 17 0.805005C17 0.360642 16.7126 0 16.3585 0H0.641509C0.287396 0 0 0.360642 0 0.805005C0 1.24937 0.287396 1.61001 0.641509 1.61001Z" fill="#EEAF30"/>
<path d="M0.641509 7.64759H16.3585C16.7126 7.64759 17 7.28695 17 6.8426C17 6.39824 16.7126 6.0376 16.3585 6.0376H0.641509C0.287396 6.0376 0 6.39824 0 6.8426C0 7.28695 0.287396 7.64759 0.641509 7.64759Z" fill="#EEAF30"/>
<path d="M0.641509 13.685H16.3585C16.7126 13.685 17 13.3243 17 12.88C17 12.4356 16.7126 12.075 16.3585 12.075H0.641509C0.287396 12.075 0 12.4356 0 12.88C0 13.3243 0.287396 13.685 0.641509 13.685Z" fill="#EEAF30"/>
</svg>
