<svg width="651" height="555" viewBox="0 0 651 555" fill="none" xmlns="http://www.w3.org/2000/svg">
<path d="M56.3884 397.494L49.7923 393.748C47.9824 396.648 45.7703 399.266 43.5984 401.24C41.7885 402.892 39.0536 402.851 37.2839 401.16L37.0828 400.958C35.1522 399.105 35.1924 395.963 37.2034 394.191C39.2547 392.378 41.2254 390.122 42.7538 387.383C45.0061 383.436 45.0061 379.851 42.2309 378.28C39.5764 376.789 36.6806 378.078 32.0151 382.227C25.2983 388.229 18.9838 391.331 12.2269 387.504C6.11343 384.04 3.78067 377.031 6.51563 368.773L0 365.027L3.86111 358.22L9.97455 361.684C11.5029 359.227 13.0313 357.333 14.4792 355.883C16.2489 354.07 19.1447 354.071 20.9546 355.803C22.8449 357.615 22.8449 360.636 20.9546 362.449C19.5469 363.819 18.0185 365.591 16.6511 368.048C14.077 372.56 15.1629 375.097 17.1337 376.185C19.4262 377.474 22.2416 375.863 27.8322 371.23C35.4338 364.624 41.145 363.456 47.3791 367.001C53.5327 370.505 56.3481 377.877 53.211 386.658L60.2897 390.686L56.3884 397.494Z" fill="#EEAF30"/>
<path d="M373.28 503.394C389.891 480.998 403.244 480.796 403.244 480.796C403.244 480.796 409.317 441.441 404.451 424.724C399.624 408.008 377.785 422.67 377.785 422.67C377.785 422.67 406.743 365.793 394.879 359.428C372.758 347.545 337.887 407.846 337.887 407.846C337.887 407.846 346.051 381.301 330.406 381.381C306.797 381.543 304.746 442.408 304.746 442.408C304.746 442.408 300.08 430.404 285.52 437.292C269.835 444.704 265.571 489.256 264.687 523.696H347.339C359.244 516.446 368.896 509.356 373.28 503.394Z" fill="#00A1DE"/>
<path d="M340.783 403.013C340.783 403.013 341.748 372.761 326.103 372.842C302.494 373.003 304.746 442.408 304.746 442.408C304.746 442.408 294.892 422.751 280.332 429.639C264.365 437.171 262.435 486.436 263.078 523.696H290.548L394.879 359.428C372.758 347.545 340.783 403.013 340.783 403.013Z" fill="#0039A6"/>
<path d="M469.286 521.763C469.286 521.763 544.618 530.464 562.878 524.059C581.138 517.654 569.032 507.423 569.032 507.423C569.032 507.423 607.643 502.468 611.343 490.988C615.083 479.467 596.824 479.427 596.824 479.427C596.824 479.427 635.555 458.038 631.212 449.699C623.127 434.231 579.65 455.339 579.65 455.339C579.65 455.339 594.652 443.254 585.602 437.212C571.968 428.108 547.152 462.307 547.152 462.307C547.152 462.307 549.123 453.607 538.102 451.874C518.314 448.733 469.286 521.763 469.286 521.763Z" fill="#00A1DE"/>
<path d="M538.102 445.429C549.122 447.162 547.192 462.267 547.192 462.267C547.192 462.267 572.852 421.462 586.487 430.566C595.536 436.608 583.229 453.607 583.229 453.607C583.229 453.607 623.167 434.191 631.252 449.619L476.525 516.849C482.156 508.349 519.601 442.529 538.102 445.429Z" fill="#0039A6"/>
<path d="M468.804 522.851C468.804 522.851 537.339 475.077 547.233 454.09C557.087 433.103 538.224 434.835 538.224 434.835C538.224 434.835 566.418 397.655 559.741 384.806C553.065 371.956 537.661 387.545 537.661 387.545C537.661 387.545 551.939 336.387 541.2 333.165C521.211 327.122 501.623 391.895 501.623 391.895C501.623 391.895 494.143 356.045 481.393 358.703C462.168 362.731 481.353 415.702 481.353 415.702C481.353 415.702 475.682 398.461 464.943 406.437C445.637 420.777 468.804 522.851 468.804 522.851Z" fill="#00A1DE"/>
<path d="M446.16 407.202C458.266 401.482 460.679 389.398 460.679 389.398C460.679 389.398 460.759 359.428 479.985 355.44C492.734 352.782 501.663 376.83 501.663 376.83C501.663 376.83 521.13 327.042 541.159 333.084L468.602 522.005C466.069 510.001 431.721 414.05 446.16 407.202Z" fill="#0039A6"/>
<path d="M447.688 522.971H309.452C305.028 522.971 301.488 519.386 301.488 514.996C301.488 510.565 305.068 507.02 309.452 507.02H447.688C452.112 507.02 455.651 510.605 455.651 514.996C455.651 519.427 452.072 522.971 447.688 522.971Z" fill="#F48C7F"/>
<path d="M471.86 507.463H333.624C329.2 507.463 325.66 503.878 325.66 499.487C325.66 495.056 329.24 491.511 333.624 491.511H471.86C476.284 491.511 479.823 495.097 479.823 499.487C479.823 503.878 476.284 507.463 471.86 507.463Z" fill="#F47458"/>
<path d="M452.514 492.76H314.278C309.854 492.76 306.314 489.175 306.314 484.784C306.314 480.353 309.894 476.809 314.278 476.809H452.514C456.938 476.809 460.478 480.394 460.478 484.784C460.478 489.215 456.938 492.76 452.514 492.76Z" fill="#F48C7F"/>
<path d="M436.386 476.849H298.15C293.726 476.849 290.187 473.264 290.187 468.873C290.187 464.442 293.766 460.897 298.15 460.897H436.386C440.81 460.897 444.35 464.482 444.35 468.873C444.39 473.264 440.81 476.849 436.386 476.849Z" fill="#F47458"/>
<path d="M465.184 527.604C503.346 527.604 534.282 496.62 534.282 458.4C534.282 420.18 503.346 389.196 465.184 389.196C427.022 389.196 396.086 420.18 396.086 458.4C396.086 496.62 427.022 527.604 465.184 527.604Z" fill="#0039A6"/>
<path d="M506.181 499.49C528.83 476.806 528.83 440.029 506.181 417.345C483.532 394.661 446.81 394.661 424.161 417.345C401.512 440.029 401.512 476.806 424.161 499.49C446.81 522.174 483.532 522.174 506.181 499.49Z" fill="#EEAF30"/>
<path d="M447.245 495.701L450.543 486.597C446.481 484.905 442.741 482.69 439.805 480.394C437.351 478.46 436.828 474.996 438.558 472.418L438.759 472.096C440.69 469.276 444.631 468.672 447.286 470.807C450.021 472.982 453.278 474.996 457.019 476.366C462.489 478.339 466.993 477.614 468.361 473.747C469.688 470.082 467.436 466.698 461.242 461.703C452.233 454.533 446.964 447.202 450.342 437.897C453.399 429.438 461.725 425.007 472.705 426.698L476.003 417.595L485.374 421.019L482.317 429.478C485.736 430.888 488.431 432.418 490.603 433.909C493.257 435.762 493.901 439.387 492.091 442.046C490.2 444.785 486.42 445.47 483.725 443.496C481.714 442.005 479.14 440.475 475.721 439.226C469.487 436.97 466.511 438.904 465.546 441.603C464.379 444.785 467.034 448.007 474.072 454.05C484.006 462.227 486.701 469.155 483.564 477.816C480.467 486.355 471.78 491.471 460.076 489.377L456.536 499.165L447.245 495.701Z" fill="white"/>
<path d="M215.94 520.191C215.94 520.191 108.513 467.14 90.0517 439.507C71.5907 411.834 98.7392 410.263 98.7392 410.263C98.7392 410.263 50.797 363.536 57.5539 343.919C64.3109 324.262 89.4484 343.033 89.4484 343.033C89.4484 343.033 58.3181 273.547 72.8375 266.659C99.9056 253.809 137.873 327.726 137.873 327.726C137.873 327.726 129.709 295.621 148.371 296.669C176.484 298.24 175.318 370.908 175.318 370.908C175.318 370.908 178.495 343.033 195.428 352.096C225.794 368.289 215.94 520.191 215.94 520.191Z" fill="#0039A6"/>
<path d="M201.541 340.818C188.309 333.447 175.116 354.957 175.116 354.957C175.116 354.957 176.444 298.2 148.33 296.629C129.708 295.582 137.833 327.686 137.833 327.686C137.833 327.686 99.8649 253.77 72.7969 266.619L216.02 518.984C217.066 501.38 227.724 355.4 201.541 340.818Z" fill="#00A1DE"/>
<path d="M213.165 520.836C213.165 520.836 125.325 531.753 102.56 522.045C79.7957 512.297 96.125 500.293 96.125 500.293C96.125 500.293 47.298 490.665 43.5174 475.681C39.7367 460.696 63.0643 462.146 63.0643 462.146C63.0643 462.146 15.4438 431.451 21.7181 421.22C33.3819 402.167 87.0756 432.821 87.0756 432.821C87.0756 432.821 68.9364 416.104 81.0023 409.176C99.1818 398.702 127.939 444.503 127.939 444.503C127.939 444.503 126.169 433.224 140.407 431.975C165.907 429.76 213.165 520.836 213.165 520.836Z" fill="#0039A6"/>
<path d="M140.931 423.798C126.693 425.047 127.899 444.543 127.899 444.543C127.899 444.543 98.6193 390.284 80.4399 400.717C68.3739 407.645 82.652 430.444 82.652 430.444C82.652 430.444 33.3825 402.207 21.7188 421.22L213.447 520.313C206.891 508.953 164.781 421.703 140.931 423.798Z" fill="#00A1DE"/>
<path d="M30.4062 525.348C30.4062 526.717 31.4922 527.805 32.8597 527.805H648.506C649.874 527.805 650.96 526.677 650.96 525.348C650.96 523.978 649.874 522.891 648.506 522.891H32.8597C31.4922 522.891 30.4062 523.978 30.4062 525.348Z" fill="#0039A6"/>
<path d="M461.323 95.1809L458.186 102.996L445.074 99.3299L439.081 110.206L428.825 109.078L428.222 114.274L441.977 115.805L447.648 105.493L461.282 109.279L465.988 97.5172L461.323 95.1809Z" fill="#0039A6"/>
<path d="M507.978 304.605L511.196 296.589C507.656 294.977 504.358 292.843 501.824 290.708C499.693 288.935 499.331 285.793 500.98 283.578L501.181 283.296C502.991 280.839 506.53 280.396 508.823 282.41C511.155 284.464 514.011 286.357 517.309 287.687C522.095 289.62 526.157 289.096 527.485 285.713C528.772 282.49 526.881 279.389 521.492 274.756C513.689 268.069 509.265 261.383 512.523 253.205C515.499 245.794 523.06 242.088 532.794 243.941L536.011 235.925L544.256 239.268L541.28 246.68C544.297 248.049 546.629 249.5 548.52 250.909C550.812 252.642 551.295 255.904 549.565 258.2C547.796 260.577 544.417 261.06 542.084 259.207C540.355 257.838 538.062 256.388 535.126 255.179C529.656 252.964 526.922 254.615 525.996 256.992C524.87 259.771 527.123 262.752 533.196 268.311C541.803 275.884 543.975 282.168 540.918 289.741C537.902 297.233 530.018 301.503 519.642 299.288L516.183 307.908L507.978 304.605Z" fill="#00A1DE"/>
<path d="M330.809 522.891H168.441C161.966 522.891 156.737 517.654 156.737 511.169C156.737 504.683 161.966 499.447 168.441 499.447H330.809C337.285 499.447 342.513 504.683 342.513 511.169C342.513 517.654 337.285 522.891 330.809 522.891Z" fill="#FAE0B2"/>
<path d="M355.223 499.689H202.347C195.871 499.689 190.643 494.452 190.643 487.967C190.643 481.481 195.871 476.245 202.347 476.245H355.223C361.698 476.245 366.927 481.481 366.927 487.967C366.927 494.412 361.698 499.689 355.223 499.689Z" fill="#F7CC7F"/>
<path d="M333.423 476.204H187.223C180.909 476.204 175.761 471.089 175.761 464.724V464.2C175.761 457.876 180.869 452.72 187.223 452.72H333.423C339.737 452.72 344.886 457.836 344.886 464.2V464.724C344.886 471.089 339.737 476.204 333.423 476.204Z" fill="#FAE0B2"/>
<path d="M333.302 452.801H186.379C180.185 452.801 175.117 447.766 175.117 441.522V440.595C175.117 434.392 180.145 429.317 186.379 429.317H333.302C339.496 429.317 344.564 434.352 344.564 440.595V441.522C344.524 447.766 339.496 452.801 333.302 452.801Z" fill="#F7CC7F"/>
<path d="M338.129 430.727H189.878C183.402 430.727 178.174 425.49 178.174 419.005C178.174 412.519 183.402 407.283 189.878 407.283H338.129C344.604 407.283 349.833 412.519 349.833 419.005C349.833 425.45 344.604 430.727 338.129 430.727Z" fill="#FAE0B2"/>
<path d="M331.734 407.565H183.483C177.008 407.565 171.779 402.328 171.779 395.843C171.779 389.357 177.008 384.121 183.483 384.121H331.734C338.209 384.121 343.438 389.357 343.438 395.843C343.438 402.288 338.209 407.565 331.734 407.565Z" fill="#F7CC7F"/>
<path d="M339.175 362.207H197.158C190.803 362.207 185.695 357.051 185.695 350.727V350.244C185.695 343.879 190.843 338.764 197.158 338.764H339.175C345.529 338.764 350.637 343.92 350.637 350.244V350.727C350.637 357.092 345.489 362.207 339.175 362.207Z" fill="#F7CC7F"/>
<path d="M351.884 384.765H215.458C209.224 384.765 204.196 379.73 204.196 373.486V372.6C204.196 366.356 209.224 361.321 215.458 361.321H351.884C358.118 361.321 363.146 366.356 363.146 372.6V373.486C363.146 379.73 358.118 384.765 351.884 384.765Z" fill="#FAE0B2"/>
<path d="M196.033 506.084C222.892 479.185 222.892 435.572 196.033 408.672C169.175 381.772 125.629 381.772 98.7703 408.672C71.9118 435.572 71.9118 479.185 98.7703 506.084C125.629 532.984 169.175 532.984 196.033 506.084Z" fill="#0039A6"/>
<path d="M186.5 414.896C209.948 436.527 211.396 473.103 189.798 496.587C168.2 520.071 131.68 521.521 108.232 499.89C84.7836 478.259 83.3357 441.683 104.934 418.199C126.572 394.755 163.092 393.265 186.5 414.896Z" fill="#EEAF30"/>
<path d="M185.253 475.439C186.58 477.171 186.5 479.628 185.012 481.28C182.156 484.502 177.491 488.369 171.619 491.27C163.052 495.499 153.158 496.788 143.867 493.606C138.035 491.632 132.525 487.564 128.342 482.005L123.274 484.502C121.545 485.348 119.453 484.623 118.609 482.891L118.528 482.77C117.684 481.038 118.408 478.944 120.137 478.098L124.32 476.043C123.475 474.674 122.912 473.828 122.51 473.062C121.867 471.773 121.223 470.122 120.66 468.309L116.356 470.404C114.627 471.25 112.535 470.525 111.691 468.793C110.846 467.061 111.57 464.966 113.3 464.12L118.488 461.542C117 454.855 117.241 448.088 119.212 442.287C122.59 432.378 130.031 424.845 139 420.414C144.229 417.836 148.653 416.789 152.233 416.427C154.726 416.145 157.019 417.917 157.381 420.414V420.495C157.743 423.073 155.933 425.49 153.359 425.812C150.423 426.215 146.964 427.141 143.062 429.075C137.351 431.895 132.525 436.527 130.112 443.214C128.784 447.081 128.422 451.633 129.75 455.983L159.03 441.603C160.759 440.757 162.851 441.482 163.695 443.214C164.54 444.946 163.816 447.041 162.086 447.886L131.519 462.912C132.082 464.402 132.645 465.892 133.128 466.819C133.691 467.987 134.294 469.155 135.179 470.646L165.827 455.58C167.597 454.734 169.728 455.459 170.573 457.192C171.417 458.964 170.694 461.099 168.964 461.945L139.644 476.366C142.419 479.709 145.838 482.045 149.297 483.254C156.214 485.509 162.328 484.784 168.803 481.562C172.785 479.628 176.003 477.171 178.376 474.835C180.387 473.022 183.564 473.264 185.253 475.439Z" fill="white"/>
<path d="M185.213 272.541C186.138 274.031 185.856 275.924 184.569 277.133C182.076 279.469 178.094 282.168 173.227 283.981C166.108 286.639 158.225 286.921 151.146 283.658C146.722 281.644 142.66 278.019 139.764 273.306L135.581 274.877C134.174 275.401 132.565 274.676 132.042 273.266L132.002 273.145C131.479 271.735 132.203 270.124 133.611 269.6L137.069 268.311C136.506 267.183 136.144 266.458 135.903 265.814C135.501 264.726 135.139 263.397 134.817 261.906L131.278 263.236C129.87 263.759 128.261 263.034 127.738 261.624C127.216 260.214 127.94 258.603 129.347 258.08L133.651 256.468C132.967 251.071 133.691 245.753 135.702 241.322C139.121 233.749 145.596 228.392 152.997 225.613C157.34 224.001 160.88 223.518 163.775 223.478C165.786 223.437 167.435 225.008 167.516 227.022V227.103C167.596 229.198 165.988 230.93 163.936 231.01C161.563 231.091 158.788 231.574 155.571 232.783C150.825 234.555 146.682 237.858 144.269 242.934C142.942 245.915 142.298 249.459 143.022 253.004L167.234 243.9C168.642 243.377 170.251 244.102 170.774 245.512C171.297 246.922 170.573 248.533 169.165 249.056L143.867 258.563C144.188 259.771 144.55 261.02 144.832 261.785C145.194 262.752 145.556 263.719 146.159 264.968L171.498 255.421C172.946 254.857 174.595 255.622 175.117 257.073C175.681 258.523 174.916 260.174 173.468 260.698L149.216 269.802C151.146 272.662 153.64 274.756 156.335 275.965C161.604 278.261 166.51 278.18 171.86 276.166C175.158 274.917 177.852 273.225 179.944 271.614C181.593 270.245 184.087 270.688 185.213 272.541Z" fill="#00A1DE"/>
<path d="M409.961 191.494L417.684 187.587L425.285 191.736C426.17 192.219 427.176 191.494 427.015 190.487L425.687 181.907L431.962 175.945C432.686 175.261 432.324 174.052 431.318 173.891L422.751 172.521L419.051 164.667C418.609 163.78 417.362 163.74 416.919 164.626L412.978 172.36L404.371 173.488C403.406 173.609 403.003 174.818 403.687 175.502L409.801 181.665L408.192 190.205C408.071 191.172 409.117 191.937 409.961 191.494Z" fill="#EEAF30"/>
<path d="M254.914 34.1947L246.91 35.0003L244.175 22.2713L232.35 22.0297L228.771 12.8455L224.146 14.6581L228.932 26.944L240.153 27.1857L242.968 40.4383L254.994 39.2299L254.914 34.1947Z" fill="#0039A6"/>
<path d="M418.971 224.888L427.498 227.707C427.498 227.707 441.052 223.317 442.379 220.537C443.707 217.758 444.109 211.071 445.999 210.87C447.93 210.668 451.67 211.313 452.555 215.905C453.198 219.248 448.332 228.875 449.096 229.882C449.579 230.527 454.445 232.299 458.025 233.508C460.358 234.313 462.087 236.408 462.449 238.906C462.69 240.597 461.725 242.249 460.157 242.853L457.703 243.82L458.508 246.358C459.111 248.251 458.065 250.265 456.175 250.909L454.284 251.554L454.888 253.085C455.652 255.059 454.566 257.355 452.515 257.919L450.866 258.402L450.946 258.845C451.228 260.698 450.061 262.47 448.292 262.954L446.643 263.397L423.878 255.864C421.747 255.179 419.776 254.011 418.127 252.521L410.565 248.533C409.761 248.09 409.399 247.123 409.681 246.237L416.679 226.015C416.96 225.089 418.006 224.565 418.971 224.888Z" fill="#EEAF30"/>
<path d="M145.073 197.295C144.953 196.972 142.298 192.38 138.839 187.426C122.791 164.224 98.941 141.908 71.0283 142.753V142.592C83.6574 141.223 96.0451 144.566 106.904 150.568C124.843 160.236 142.298 178.685 151.83 192.864L145.073 197.295Z" fill="#EEAF30"/>
<path d="M328.798 168.373C328.798 168.373 329.603 166.721 329.563 162.894C329.482 158.141 328.557 151.011 328.356 150.367C327.994 149.239 343.318 144.405 343.318 144.405C343.318 144.405 367.892 143.156 371.512 140.417C375.172 137.678 378.229 136.55 376.539 139.37C373.442 144.526 366.243 152.059 364.675 153.106C363.066 154.153 344.001 158.947 343.64 158.947C343.278 158.947 343.398 170.951 343.398 170.951L328.798 168.373Z" fill="#F7A491"/>
<path d="M344.725 163.257C344.725 163.257 328.838 160.558 328.516 162.129C322.081 197.375 320.995 209.017 320.312 209.379C317.898 210.628 283.269 180.215 277.558 178.201C274.823 177.234 271.847 177.396 268.991 177.476C262.194 177.678 264.486 177.516 260.907 177.678C260.706 177.678 260.585 177.718 260.585 177.718L260.625 184.123C268.307 191.011 285.843 295.622 287.331 295.582C288.98 295.501 323.65 304.242 323.047 301.302C322.966 300.818 299.518 281.644 292.882 253.931C290.669 244.626 289.543 234.636 288.337 225.854C296.059 229.721 326.143 244.545 330.889 242.611C345.771 236.569 344.725 163.257 344.725 163.257Z" fill="#00A1DE"/>
<path d="M404.452 348.995C404.452 348.995 436.709 374.292 437.794 378.804C439.363 385.249 468.884 376.789 461.766 375.46C460.117 375.138 454.888 373.809 454.446 373.607C452.153 372.358 423.436 337.716 423.436 337.716L404.452 348.995Z" fill="#F7A491"/>
<path d="M475.641 375.46L455.049 373.768C455.049 373.768 449.176 378.642 437.834 378.884C437.834 378.884 436.024 384.08 436.869 390.123C437.03 391.17 437.191 394.312 438.237 394.231C442.057 393.99 452.193 391.452 463.736 389.116C463.736 389.116 479.261 385.812 488.23 380.455C497.199 375.098 475.641 375.46 475.641 375.46Z" fill="#184655"/>
<path d="M259.901 285.511C259.901 285.511 283.511 289.499 309.654 283.376C339.899 276.287 373.322 269.761 383.135 275.441C391.018 280.033 440.248 354.554 440.248 354.554L421.224 368.451L367.007 307.626C367.007 307.626 297.829 333.205 282.304 330.345C246.91 323.9 246.428 295.582 259.901 285.511Z" fill="#B75742"/>
<path d="M285.723 270.446L309.372 298.603L265.492 311.976L259.901 285.511L285.723 270.446Z" fill="#B75742"/>
<path d="M333.785 398.984C333.785 398.984 332.337 438.058 331.452 444.704C330.568 451.31 348.023 471.129 345.771 464.241C345.248 462.67 343.921 457.393 343.921 456.909C343.921 454.291 350.396 409.699 350.396 409.699L333.785 398.984Z" fill="#F7A491"/>
<path d="M352.367 476.446L344.041 457.474C344.041 457.474 336.962 454.613 331.372 444.745C331.372 444.745 325.982 445.59 321.035 449.256C320.191 449.901 314.399 454.09 314.801 455.097C316.289 458.682 324.132 466.376 332.739 474.754C332.739 474.754 344.926 484.583 353.895 489.94C362.904 495.298 352.367 476.446 352.367 476.446Z" fill="#184655"/>
<path d="M372.075 321.926C363.83 310.889 297.145 300.416 297.145 300.416L278.564 264.605L237.459 289.983C237.459 289.983 241.561 322.732 244.658 331.513C248.761 343.195 276.392 343.759 293.284 343.597C308.809 343.436 337.164 346.618 337.164 346.618L327.552 431.371C327.552 431.371 346.415 435.681 351.724 434.956C352.287 434.916 382.331 335.662 372.075 321.926Z" fill="#F47458"/>
<path d="M260.866 177.798L237.66 179.087C237.66 179.087 237.137 179.289 236.976 179.289C235.085 179.651 236.815 247.324 238.504 272.621C240.193 297.918 243.612 308.512 243.612 308.512C243.612 308.512 275.064 302.913 284.717 299.167C288.739 297.596 298.432 285.471 298.432 285.471C298.432 285.471 288.538 272.138 283.551 250.466C279.689 233.75 274.943 204.143 272.249 197.939C265.934 183.76 260.866 177.798 260.866 177.798Z" fill="white"/>
<path d="M238.303 158.584L237.659 179.087C237.659 179.087 252.661 204.988 260.383 201.403C266.859 198.382 261.107 178.644 261.107 178.644C261.107 178.644 259.981 174.133 258.453 168.936C257.367 165.311 256.482 161.364 256.522 158.504C256.683 151.495 238.303 158.584 238.303 158.584Z" fill="#F7A491"/>
<path d="M256.24 111.817C256.24 111.817 263.882 123.378 264.445 133.086C265.008 142.794 262.957 149.44 262.957 149.44L238.383 120.035L256.24 111.817Z" fill="#184655"/>
<path d="M267.019 131.112C267.381 134.536 266.054 137.436 264.083 137.638C262.113 137.839 260.222 135.261 259.86 131.837C259.498 128.413 260.826 125.513 262.796 125.312C264.807 125.11 266.658 127.688 267.019 131.112Z" fill="#F48C7F"/>
<path d="M230.5 124.748C229.937 124.627 229.977 152.945 238.182 159.591C246.387 166.238 260.625 166.842 264.808 160.115C269.393 152.703 265.049 122.854 252.862 116.53C240.635 110.206 230.5 124.748 230.5 124.748Z" fill="#F7A491"/>
<path d="M228.408 107.185C222.174 112.663 219.117 116.691 214.894 126.439C209.706 138.443 220.002 150.89 228.65 155.805C237.297 160.759 238.021 166.802 238.021 166.802L238.383 163.015C238.745 160.075 237.86 158.423 237.056 156.651C236.332 155.08 233.959 149.682 233.034 148.232C230.58 144.486 230.138 143.64 231.304 140.095C232.229 137.356 231.143 131.273 232.591 126.721L244.255 124.224C244.255 124.224 251.535 122.452 255.235 118.222C265.813 106.057 244.898 92.4418 228.408 107.185Z" fill="#184655"/>
<path d="M234.079 143.237C235.527 146.339 235.205 149.521 233.395 150.367C231.585 151.213 228.971 149.36 227.523 146.258C226.075 143.156 226.397 139.974 228.207 139.128C230.057 138.282 232.671 140.135 234.079 143.237Z" fill="#F7A491"/>
<path d="M77.1819 153.388L75.2915 140.337L84.9443 131.394C86.0303 130.387 85.5074 128.534 84.0193 128.292L71.0684 126.077L65.5583 114.113C64.9148 112.744 63.0245 112.703 62.3005 114.033L56.1871 125.674L43.1156 127.245C41.6274 127.406 40.9839 129.219 42.0296 130.306L51.1998 139.732L48.6257 152.663C48.3442 154.153 49.8725 155.321 51.1998 154.637L62.9842 148.796L74.4469 155.241C75.8546 155.966 77.4232 154.878 77.1819 153.388Z" fill="#EEAF30"/>
<path d="M154.726 65.1712C156.053 70.6092 158.426 79.2295 158.426 79.2295C158.225 81.6061 157.541 91.4348 156.697 103.519L174.434 96.4297C174.434 96.4297 174.232 76.7723 174.997 75.5639C175.68 74.5568 176.807 75.8055 182.236 68.0312C183.805 65.7754 184.086 61.7876 184.086 61.7876C184.086 61.7876 184.408 56.8329 183.282 56.3898C182.156 55.9467 180.909 56.6718 180.507 57.5177C180.105 58.3636 180.225 60.3777 179.823 61.2236C179.421 62.0695 176.847 63.1168 175.761 63.0363C174.675 62.996 175.881 48.4141 175.881 48.4141C175.881 48.4141 176.485 44.2651 176.807 42.9358C177.048 41.7676 178.134 38.4242 178.134 38.4242C178.134 38.4242 179.381 33.5099 177.852 33.1474C176.967 32.9459 174.675 36.8935 173.106 41.1231C171.417 45.6749 170.452 50.5087 169.969 50.4282C168.843 50.267 169.446 42.2913 169.446 42.2913C169.446 42.2913 170.572 38.6257 170.532 36.8935C171.578 34.7989 172.302 30.8513 170.412 30.5291C170.05 30.4888 167.596 35.4434 167.596 35.4434C167.596 35.4434 166.631 38.9479 166.068 40.5994C165.062 43.4997 164.901 48.0515 164.379 50.0656C163.936 51.7574 163.534 51.0324 163.373 51.1129C163.252 51.1532 163.494 48.8572 163.735 45.6749C163.856 44.0637 163.695 42.2107 164.137 40.398C164.539 38.7062 164.781 36.2893 164.901 34.8392C165.223 30.6902 162.609 31.1333 161.724 34.9197C161.362 36.3699 161.04 37.9409 160.678 39.5118C159.271 45.7152 159.311 51.6769 158.667 51.7172C157.783 51.7977 158.386 40.9217 158.386 40.9217C158.386 40.9217 157.059 34.9197 155.731 40.4786C154.203 46.9639 154.364 52.2408 154.364 52.4825C154.525 54.0938 153.399 59.7332 154.726 65.1712Z" fill="#F8A492"/>
<path d="M237.619 179.128C237.619 179.128 214.654 178.04 208.701 175.341C205.122 173.73 175.56 149.843 175.56 149.843L175.882 85.9968L155.088 84.4258C155.088 84.4258 144.309 154.999 148.049 162.733C151.911 170.709 195.147 203.538 203.794 217.798C208.782 226.016 219.158 337.676 220.727 338.683C231.908 344.524 266.497 350.324 265.653 346.82C243.25 249.016 237.619 179.128 237.619 179.128Z" fill="#00A1DE"/>
<path d="M340.301 151.334C378.463 151.334 409.399 120.35 409.399 82.1298C409.399 43.9096 378.463 12.926 340.301 12.926C302.139 12.926 271.203 43.9096 271.203 82.1298C271.203 120.35 302.139 151.334 340.301 151.334Z" fill="#0039A6"/>
<path d="M381.302 123.218C403.951 100.534 403.951 63.7565 381.302 41.0727C358.653 18.389 321.931 18.389 299.282 41.0728C276.633 63.7566 276.633 100.534 299.282 123.218C321.931 145.902 358.653 145.902 381.302 123.218Z" fill="#EEAF30"/>
<path d="M322.363 119.43L325.661 110.327C321.598 108.635 317.858 106.42 314.922 104.123C312.469 102.19 311.946 98.7257 313.675 96.1477L313.876 95.8255C315.807 93.0057 319.748 92.4015 322.403 94.5364C325.138 96.7116 328.396 98.7257 332.136 100.095C337.606 102.069 342.111 101.344 343.478 97.477C344.805 93.8114 342.553 90.4277 336.359 85.4328C327.35 78.2627 322.081 70.9314 325.46 61.6264C328.516 53.1673 336.842 48.7363 347.822 50.4281L351.12 41.3245L360.491 44.7484L357.434 53.2075C360.853 54.6174 363.548 56.1481 365.72 57.6385C368.374 59.4915 369.018 63.1168 367.208 65.7754C365.318 68.5145 361.537 69.1993 358.842 67.2255C356.831 65.7351 354.257 64.2044 350.838 62.9557C344.604 60.6999 341.628 62.6334 340.663 65.3323C339.537 68.5145 342.151 71.7371 349.189 77.7793C359.124 85.9565 361.818 92.8849 358.681 101.545C355.584 110.085 346.897 115.201 335.193 113.106L331.653 122.895L322.363 119.43Z" fill="white"/>
<path d="M338.531 151.736C338.531 151.736 344.926 148.997 346.656 148.433C348.385 147.869 353.855 146.822 353.855 146.822C353.855 146.822 362.382 138.081 364.554 137.839C366.725 137.597 359.566 147.386 359.566 147.386L356.59 150.246C356.59 150.246 361.376 146.137 362.301 145.573C363.226 145.009 370.426 134.576 372.236 135.261C374.045 135.946 369.139 143.277 366.766 147.144C364.352 151.052 353.413 153.428 353.413 153.428L338.531 151.736Z" fill="#F7A491"/>
<path d="M414.989 179.974C414.989 181.706 376.137 182.149 368.093 216.67L362.904 214.978C374.447 179.893 412.898 181.343 414.788 180.054C414.828 180.054 414.828 180.014 414.828 180.014H414.989V179.974Z" fill="#EEAF30"/>
<path d="M578.403 401.885L579.731 397.293C586.809 395.964 592.882 391.13 594.893 384.242C595.537 382.026 595.979 380.173 596.301 377.676L586.85 374.937L588.539 369.136L597.065 371.633C597.387 368.733 597.91 364.987 598.956 361.402C602.093 350.566 611.585 345.611 621.801 348.592C624.696 349.438 626.949 350.526 628.638 351.654C630.166 352.661 630.569 354.755 629.563 356.286C628.558 357.817 626.506 358.26 624.938 357.293C623.651 356.488 622.002 355.722 619.91 355.118C612.751 353.023 608.367 357.132 606.477 363.658C605.31 367.605 605.029 370.707 604.707 373.809L617.94 377.676L616.25 383.476L603.742 379.851C603.018 383.436 602.173 386.981 600.404 390.042C598.232 393.708 595.095 396.366 591.193 398.139L591.153 398.34L615.285 405.349C617.055 405.873 618.1 407.726 617.578 409.538L617.497 409.78C616.974 411.553 615.124 412.6 613.314 412.076L578.403 401.885Z" fill="#EEAF30"/>
</svg>
