<svg width="18" height="18" viewBox="0 0 18 18" fill="none" xmlns="http://www.w3.org/2000/svg">
<path d="M16.8334 17.9996C17.132 17.9996 17.4307 17.8854 17.6579 17.658C18.114 17.2021 18.114 16.4649 17.6579 16.009L1.99103 0.341932C1.53512 -0.113977 0.797977 -0.113977 0.342066 0.341932C-0.114057 0.797842 -0.114057 1.53499 0.342066 1.9909L16.0089 17.658C16.2376 17.8865 16.5349 17.9996 16.8334 17.9996Z" fill="#EEAF30"/>
<path d="M1.16655 17.9996C1.46508 17.9996 1.76361 17.8854 1.99103 17.658L17.6579 1.9909C18.114 1.53499 18.114 0.797842 17.6579 0.341932C17.202 -0.113977 16.4651 -0.113977 16.0089 0.341932L0.342066 16.009C-0.114057 16.4649 -0.114057 17.2021 0.342066 17.658C0.569488 17.8865 0.868018 17.9996 1.16655 17.9996V17.9996Z" fill="#EEAF30"/>
</svg>
