<svg width="206" height="47" viewBox="0 0 206 47" fill="none" xmlns="http://www.w3.org/2000/svg">
<path d="M37.3235 47H9.65512C4.32319 47 0 42.6748 0 37.3405V9.65951C0 4.32515 4.32319 0 9.65512 0H37.3956C42.7275 0 47.0507 4.32515 47.0507 9.65951V37.4126C46.9787 42.6749 42.6555 47 37.3235 47Z" fill="white"/>
<path d="M21.1121 6.84824C21.8326 6.41572 22.6252 6.19946 23.4178 6.19946C21.6885 6.27155 20.1754 7.13658 19.3108 8.65038L5.26039 33.0154C3.89138 35.3222 4.68396 38.2777 6.98966 39.6473C9.29536 41.0169 12.3216 40.224 13.6186 37.8452L23.4898 20.7608L19.3108 13.4801C17.9417 11.1734 18.7343 8.21787 21.1121 6.84824Z" fill="#00A1DE"/>
<path d="M41.7912 33.0154L27.7408 8.65038C26.8762 7.13658 25.291 6.27155 23.7058 6.19946C24.4984 6.19946 25.291 6.41572 26.0115 6.84824C28.3172 8.21787 29.1098 11.1734 27.8129 13.4801L23.6338 20.7608L33.5051 37.8452C34.8741 40.1519 37.8283 40.9449 40.134 39.6473C42.2956 38.2777 43.0881 35.3222 41.7912 33.0154Z" fill="#0039A6"/>
<path d="M25.9394 6.84824C25.2188 6.41572 24.4262 6.19946 23.6337 6.19946C23.5616 6.19946 23.5616 6.19946 23.4895 6.19946C23.4175 6.19946 23.4175 6.19946 23.3454 6.19946C22.5529 6.19946 21.7603 6.41572 21.0397 6.84824C18.734 8.21787 17.9415 11.1734 19.2384 13.4801L23.4175 20.7608L27.5966 13.4801C29.0376 11.1734 28.2451 8.21787 25.9394 6.84824Z" fill="#002C77"/>
<path d="M28.5332 35.4663C28.5332 38.2056 26.2995 40.4403 23.5615 40.4403C20.8235 40.4403 18.5898 38.2056 18.5898 35.4663C18.5898 32.7271 20.8235 30.4924 23.5615 30.4924C26.2995 30.4203 28.5332 32.655 28.5332 35.4663Z" fill="#EEAF30"/>
<path d="M67.0091 14.1288C67.0812 13.408 67.2253 12.8313 67.5855 12.5429C67.8738 12.2546 68.3781 12.0383 69.0266 12.0383H79.114C80.411 12.0383 81.0595 12.7592 81.0595 14.1288V33.1595C81.0595 33.3758 80.9874 33.5199 80.9154 33.592C80.8433 33.6641 80.6992 33.6641 80.4831 33.6641H77.8171C77.6009 33.6641 77.4568 33.6641 77.3848 33.592C77.3127 33.5199 77.2407 33.3758 77.2407 33.1595V15.3543H70.3956L70.1795 18.0215C70.0353 20.3282 69.8192 22.3466 69.6751 24.2208C69.531 26.023 69.1707 27.6089 68.7384 28.9064C68.3061 30.2761 67.6576 31.3573 66.865 32.2224C66.0724 33.0874 64.9196 33.7362 63.4785 34.1687C63.2623 34.2408 63.1182 34.1687 62.9741 34.1687C62.83 34.0966 62.758 33.9524 62.6859 33.7362L62.0374 31.934C61.9654 31.7178 61.9654 31.5736 62.0374 31.5015C62.0374 31.3573 62.1815 31.2853 62.3977 31.1411C63.2623 30.7807 63.9108 30.2761 64.4152 29.6994C64.9196 29.1227 65.2798 28.3297 65.568 27.3926C65.8563 26.4555 66.0004 25.23 66.1445 23.7883C66.2886 22.3466 66.4327 20.5445 66.5768 18.3819L67.0091 14.1288Z" fill="white"/>
<path d="M99.0009 25.5185C99.0009 28.2577 98.3525 30.3482 97.1276 31.862C95.8306 33.3037 93.9572 34.0967 91.4354 34.0967C88.9135 34.0967 87.1122 33.3758 85.8873 31.9341C84.6624 30.4924 84.0859 28.4019 84.0859 25.6626C84.0859 24.293 84.3021 23.0675 84.6624 22.0583C85.0226 20.977 85.527 20.112 86.1755 19.3912C86.824 18.6703 87.6165 18.0936 88.5532 17.7332C89.4899 17.3728 90.4987 17.1565 91.5795 17.1565C94.0293 17.1565 95.9027 17.8774 97.1276 19.3912C98.4245 20.8329 99.0009 22.8513 99.0009 25.5185ZM95.3262 25.5905C95.3262 24.8697 95.2542 24.1488 95.1821 23.5001C95.038 22.8513 94.8939 22.2746 94.6057 21.77C94.3175 21.2654 93.9572 20.8329 93.4529 20.5445C92.9485 20.2562 92.3721 20.112 91.6515 20.112C91.003 20.112 90.4266 20.2562 89.9223 20.5445C89.4179 20.8329 88.9856 21.1933 88.6973 21.6979C88.3371 22.2025 88.1209 22.7071 87.9768 23.428C87.8327 24.0767 87.7607 24.7976 87.7607 25.5905C87.7607 27.3206 88.0489 28.6902 88.6253 29.6274C89.2017 30.6366 90.1384 31.0691 91.5795 31.0691C92.3 31.0691 92.8764 30.9249 93.3808 30.6366C93.8852 30.3482 94.2454 29.9157 94.5337 29.4111C94.8219 28.9065 95.038 28.3298 95.1821 27.681C95.3262 27.0323 95.3262 26.3114 95.3262 25.5905Z" fill="white"/>
<path d="M132.794 25.5185C132.794 28.2577 132.146 30.3482 130.921 31.862C129.624 33.3037 127.75 34.0967 125.301 34.0967C122.779 34.0967 120.977 33.3758 119.753 31.9341C118.528 30.4924 117.951 28.4019 117.951 25.6626C117.951 24.293 118.167 23.0675 118.528 22.0583C118.888 20.977 119.392 20.112 120.041 19.3912C120.689 18.6703 121.482 18.0936 122.418 17.7332C123.355 17.3728 124.364 17.1565 125.445 17.1565C127.895 17.1565 129.768 17.8774 130.993 19.3912C132.146 20.8329 132.794 22.8513 132.794 25.5185ZM129.119 25.5905C129.119 24.8697 129.047 24.1488 128.975 23.5001C128.831 22.8513 128.687 22.2746 128.399 21.77C128.111 21.2654 127.75 20.8329 127.246 20.5445C126.742 20.2562 126.165 20.112 125.445 20.112C124.796 20.112 124.22 20.2562 123.715 20.5445C123.211 20.8329 122.779 21.1933 122.491 21.6979C122.13 22.2025 121.914 22.7071 121.77 23.428C121.626 24.0767 121.554 24.7976 121.554 25.5905C121.554 27.3206 121.842 28.6902 122.418 29.6274C122.995 30.6366 123.932 31.0691 125.373 31.0691C126.093 31.0691 126.67 30.9249 127.174 30.6366C127.678 30.3482 128.039 29.9157 128.327 29.4111C128.615 28.9065 128.831 28.3298 128.975 27.681C129.047 27.0323 129.119 26.3114 129.119 25.5905Z" fill="white"/>
<path d="M138.126 33.664C137.477 33.664 137.045 33.5199 136.757 33.2315C136.541 32.9432 136.396 32.5107 136.396 31.934V14.2008C136.396 12.8312 137.045 12.1104 138.342 12.1104H149.942C150.159 12.1104 150.303 12.1824 150.375 12.2545C150.447 12.3266 150.447 12.4708 150.447 12.7591V14.8496C150.447 15.0659 150.447 15.21 150.375 15.2821C150.303 15.3542 150.159 15.4263 149.942 15.4263H140.143V20.184H145.187C146.34 20.184 147.349 20.3281 148.141 20.5444C148.934 20.7607 149.654 21.1211 150.231 21.4815C150.807 21.8419 151.239 22.3465 151.6 22.7791C151.96 23.2837 152.176 23.7883 152.392 24.2929C152.536 24.7975 152.681 25.3021 152.753 25.8067C152.825 26.3113 152.825 26.6717 152.825 27.1042C152.825 28.0413 152.608 28.9784 152.248 29.7714C151.888 30.5643 151.384 31.2852 150.663 31.934C150.015 32.5107 149.222 33.0153 148.357 33.3036C147.493 33.664 146.556 33.8082 145.547 33.8082H138.126V33.664ZM148.934 26.7438C148.934 25.7346 148.646 24.9416 147.997 24.2929C147.349 23.6441 146.484 23.2837 145.259 23.2837H140.143V30.276H145.187C145.908 30.276 146.556 30.1318 146.988 29.9156C147.493 29.6993 147.853 29.411 148.141 29.0505C148.429 28.6901 148.646 28.3297 148.718 27.8972C148.862 27.4646 148.934 27.1042 148.934 26.7438Z" fill="white"/>
<path d="M169.109 31.9339C169.109 32.4385 168.893 32.799 168.532 32.9431C168.1 33.1594 167.596 33.3036 167.091 33.4477C166.587 33.5919 166.011 33.7361 165.506 33.8082C164.93 33.8802 164.425 33.9523 163.849 33.9523C163.273 33.9523 162.768 34.0244 162.264 34.0244C160.895 34.0244 159.814 33.8802 158.877 33.5919C158.013 33.3036 157.292 32.9431 156.716 32.5106C156.211 32.0781 155.851 31.5014 155.635 30.8526C155.419 30.2039 155.347 29.5551 155.347 28.8342C155.347 28.1134 155.491 27.3925 155.707 26.7437C155.923 26.095 156.355 25.5183 156.86 25.0137C157.364 24.5091 158.085 24.0766 158.949 23.7882C159.814 23.4999 160.823 23.3557 162.048 23.3557H165.506V22.8511C165.506 22.4907 165.434 22.1302 165.362 21.7698C165.29 21.4094 165.146 21.121 164.858 20.9048C164.642 20.6885 164.281 20.4723 163.921 20.3281C163.489 20.1839 162.984 20.1118 162.336 20.1118C161.615 20.1118 160.895 20.1839 160.03 20.3281C159.238 20.4723 158.517 20.6164 158.013 20.7606C157.796 20.8327 157.652 20.8327 157.508 20.7606C157.436 20.6885 157.364 20.6164 157.292 20.4002L156.86 18.6701C156.788 18.3097 156.86 18.0934 157.148 18.0213C158.013 17.6609 158.949 17.4447 159.958 17.3005C160.967 17.1563 161.976 17.0842 162.84 17.0842C165.002 17.0842 166.515 17.5888 167.524 18.5259C168.532 19.4631 169.037 20.8327 169.037 22.6348V31.9339H169.109ZM165.506 26.095H162.552C162.192 26.095 161.831 26.095 161.399 26.167C160.967 26.2391 160.607 26.3112 160.246 26.5275C159.886 26.7437 159.598 26.96 159.382 27.3204C159.165 27.6809 159.021 28.1855 159.021 28.7621C159.021 29.6272 159.31 30.2759 159.886 30.6364C160.462 30.9968 161.255 31.141 162.264 31.141C162.408 31.141 162.624 31.141 162.84 31.141C163.128 31.141 163.345 31.141 163.633 31.0689C163.921 30.9968 164.209 30.9968 164.569 30.9247C164.858 30.8526 165.146 30.7805 165.434 30.7085V26.095H165.506Z" fill="white"/>
<path d="M176.602 33.592C176.53 33.6641 176.314 33.7362 176.098 33.7362H173.864C173.648 33.7362 173.504 33.6641 173.36 33.592C173.216 33.5199 173.216 33.3757 173.216 33.0874V18.0935C173.216 17.8773 173.288 17.7331 173.36 17.661C173.504 17.5889 173.648 17.5168 173.864 17.5168H176.098C176.314 17.5168 176.53 17.5889 176.602 17.661C176.674 17.7331 176.746 17.8773 176.746 18.1656V23.6441H183.591V18.1656C183.591 17.9494 183.664 17.8052 183.736 17.7331C183.88 17.661 184.024 17.5889 184.24 17.5889H186.474C186.762 17.5889 186.906 17.661 186.978 17.7331C187.05 17.8052 187.122 17.9494 187.122 18.2377V33.2316C187.122 33.5199 187.05 33.6641 186.978 33.7362C186.906 33.8083 186.69 33.8803 186.474 33.8803H184.24C184.024 33.8803 183.808 33.8083 183.736 33.7362C183.591 33.6641 183.591 33.5199 183.591 33.2316V26.6718H176.746V33.2316C176.746 33.3037 176.674 33.5199 176.602 33.592Z" fill="white"/>
<path d="M205.928 33.0874L200.668 25.0859L205.351 18.0935C205.424 18.0214 205.424 17.8773 205.424 17.7331C205.351 17.5889 205.279 17.5168 205.135 17.5168H201.965C201.893 17.5168 201.749 17.5889 201.677 17.661L197.57 23.6441H194.688V18.0214C194.688 17.8052 194.616 17.661 194.544 17.5889C194.471 17.5168 194.327 17.5168 194.111 17.5168H191.661C191.445 17.5168 191.373 17.5168 191.229 17.5889C191.157 17.661 191.085 17.8052 191.085 18.0214V33.1595C191.085 33.3757 191.157 33.5199 191.229 33.592C191.301 33.6641 191.445 33.6641 191.661 33.6641H194.111C194.327 33.6641 194.471 33.6641 194.544 33.592C194.616 33.5199 194.688 33.3757 194.688 33.1595V26.3834H197.426L202.181 33.5199C202.253 33.592 202.325 33.6641 202.469 33.6641H205.784C205.928 33.6641 206.072 33.592 206.072 33.4478C206.072 33.3757 206 33.2316 205.928 33.0874Z" fill="white"/>
<path d="M116.942 33.0874L111.682 25.0859L116.365 18.0935C116.437 18.0214 116.509 17.8773 116.437 17.7331C116.365 17.5889 116.293 17.5168 116.149 17.5168H112.979C112.907 17.5168 112.762 17.5889 112.69 17.661L108.583 23.6441H105.701V18.0214C105.701 17.8052 105.629 17.661 105.557 17.5889C105.485 17.5168 105.341 17.5168 105.125 17.5168H102.675C102.459 17.5168 102.315 17.5168 102.243 17.5889C102.171 17.661 102.099 17.8052 102.099 18.0214V33.1595C102.099 33.3757 102.171 33.5199 102.243 33.592C102.315 33.6641 102.459 33.6641 102.675 33.6641H105.125C105.341 33.6641 105.485 33.6641 105.557 33.592C105.629 33.5199 105.701 33.3757 105.701 33.1595V26.3834H108.439L113.195 33.5199C113.267 33.592 113.339 33.6641 113.483 33.6641H116.797C116.942 33.6641 117.014 33.592 117.086 33.4478C117.014 33.3757 117.014 33.2316 116.942 33.0874Z" fill="white"/>
</svg>
