<svg width="28" height="28" viewBox="0 0 28 28" fill="none" xmlns="http://www.w3.org/2000/svg">
<path d="M24.5 19.2318C24.198 19.2318 23.9531 19.4766 23.9531 19.7787V26.5521L14.2524 21.5044C14.0942 21.4221 13.9059 21.4221 13.7476 21.5044L4.04688 26.5521V10.7461C4.04688 10.4441 3.80198 10.1992 3.5 10.1992C3.19802 10.1992 2.95312 10.4441 2.95312 10.7461V27.4531C2.95312 27.6443 3.05288 27.8214 3.21623 27.9206C3.37974 28.0198 3.58302 28.0264 3.75244 27.9383L14 22.6061L24.2476 27.9383C24.3269 27.9795 24.4135 28 24.5 28C24.5985 28 24.6968 27.9734 24.7837 27.9206C24.9471 27.8214 25.0469 27.6443 25.0469 27.4531V19.7787C25.0469 19.4766 24.802 19.2318 24.5 19.2318Z" fill="#EEAF30"/>
<path d="M24.5 0H3.5C3.19802 0 2.95312 0.244836 2.95312 0.546875V6.34375C2.95312 6.64579 3.19802 6.89062 3.5 6.89062C3.80198 6.89062 4.04688 6.64579 4.04688 6.34375V1.09375H23.9531V15.6588C23.9531 15.9609 24.198 16.2057 24.5 16.2057C24.802 16.2057 25.0469 15.9609 25.0469 15.6588V0.546875C25.0469 0.244836 24.802 0 24.5 0Z" fill="#EEAF30"/>
<path d="M21.0097 9.63993C20.9453 9.44196 20.7742 9.29769 20.5681 9.26783L16.3684 8.65872L14.4892 4.85373C14.3971 4.66714 14.2071 4.54901 13.9989 4.54901C13.9989 4.54901 13.9988 4.54901 13.9988 4.54901C13.7906 4.54907 13.6005 4.6673 13.5084 4.854L11.6313 8.65998L7.43199 9.27133C7.22603 9.3013 7.05492 9.44562 6.9906 9.64365C6.92635 9.84161 6.97999 10.0589 7.12913 10.2042L10.1688 13.1655L9.45247 17.3483C9.41731 17.5535 9.50169 17.7608 9.67013 17.8831C9.76539 17.9523 9.87821 17.9875 9.99153 17.9875C10.0786 17.9875 10.1661 17.9667 10.2462 17.9246L14.0018 15.9489L17.7585 17.9227C17.9428 18.0195 18.1661 18.0033 18.3344 17.8809C18.5029 17.7585 18.5871 17.5511 18.5519 17.346L17.8334 13.1636L20.8715 10.2006C21.0205 10.0552 21.0741 9.83789 21.0097 9.63993ZM16.8639 12.5812C16.7351 12.7069 16.6763 12.8879 16.7068 13.0653L17.2863 16.439L14.2561 14.8468C14.0968 14.7631 13.9064 14.7632 13.747 14.8469L10.7176 16.4407L11.2953 13.0667C11.3257 12.8892 11.2668 12.7083 11.1379 12.5827L8.68603 10.194L12.0735 9.7009C12.2516 9.67498 12.4055 9.56309 12.4852 9.40165L13.9993 6.33161L15.5151 9.40083C15.5948 9.56216 15.7488 9.674 15.9269 9.69986L19.3145 10.1912L16.8639 12.5812Z" fill="#EEAF30"/>
<path d="M3.88659 8.18074C3.78492 8.07903 3.64383 8.02106 3.5 8.02106C3.35617 8.02106 3.21508 8.07903 3.11336 8.18074C3.01159 8.28301 2.95312 8.42356 2.95312 8.56793C2.95312 8.71176 3.01164 8.85285 3.11336 8.95457C3.21508 9.05629 3.35617 9.11481 3.5 9.11481C3.64383 9.11481 3.78492 9.05629 3.88659 8.95457C3.98836 8.85231 4.04688 8.71176 4.04688 8.56793C4.04688 8.4241 3.9883 8.28301 3.88659 8.18074Z" fill="#EEAF30"/>
<path d="M24.8866 17.2774C24.7849 17.1757 24.6438 17.1172 24.5 17.1172C24.3562 17.1172 24.2151 17.1757 24.1134 17.2774C24.0116 17.3791 23.9531 17.5202 23.9531 17.6641C23.9531 17.8079 24.0116 17.949 24.1134 18.0507C24.2151 18.1524 24.3562 18.2109 24.5 18.2109C24.6438 18.2109 24.7849 18.1524 24.8866 18.0507C24.9884 17.949 25.0469 17.8079 25.0469 17.6641C25.0469 17.5202 24.9883 17.3791 24.8866 17.2774Z" fill="#EEAF30"/>
</svg>
