<svg width="60" height="60" viewBox="0 0 49 49" fill="none" xmlns="http://www.w3.org/2000/svg">
<path d="M25.7093 15.6293C25.6923 15.6248 25.4148 15.5537 25.4148 15.5537V9.29474C26.0241 9.40274 26.5865 9.69013 27.0359 10.1318C27.3207 10.4114 27.7779 10.4075 28.0577 10.1228C28.3374 9.83811 28.3334 9.38068 28.0488 9.10099C27.3268 8.39143 26.4065 7.95307 25.4147 7.83466V5.96571C25.4147 5.56656 25.0913 5.24313 24.6922 5.24313C24.293 5.24313 23.9696 5.56656 23.9696 5.96571V7.89064C21.8951 8.30896 20.3281 10.1453 20.3281 12.3411C20.3281 14.5312 21.8972 16.3704 23.9696 16.7897V23.0561C23.8794 23.0398 23.7895 23.02 23.7 22.9957C22.897 22.7766 22.23 22.2573 21.8218 21.5337C21.6259 21.1861 21.1851 21.0633 20.8375 21.2593C20.49 21.4553 20.367 21.896 20.5631 22.2436C21.1624 23.306 22.1413 24.0682 23.3195 24.3897C23.5348 24.4485 23.752 24.4897 23.9695 24.5165V26.3861C23.9695 26.7852 24.2929 27.1086 24.6921 27.1086C25.0912 27.1086 25.4146 26.7852 25.4146 26.3861V24.4615C25.8834 24.3663 26.3393 24.1964 26.7667 23.9522C27.8197 23.3508 28.5755 22.3751 28.8948 21.205C29.2142 20.0349 29.0588 18.8106 28.4574 17.7577C27.8563 16.705 26.8807 15.9491 25.7093 15.6293ZM21.7735 12.3411C21.7735 10.947 22.7002 9.76566 23.9698 9.37962V15.3016C22.7011 14.9148 21.7735 13.7316 21.7735 12.3411ZM27.5009 20.8247C27.2832 21.6223 26.7681 22.2874 26.0502 22.6974C25.8467 22.8136 25.6336 22.9044 25.4148 22.9714V17.0493C26.1746 17.2796 26.8075 17.7826 27.2028 18.4747C27.6128 19.1924 27.7187 20.027 27.5009 20.8247Z" fill="#EEAF30"/>
<path d="M46.0297 41.7934V13.7589C46.0297 12.384 44.9108 11.2655 43.5354 11.2655H40.1204C39.3474 8.82727 37.9968 6.59308 36.1362 4.73241C29.8261 -1.57747 19.5592 -1.57747 13.2491 4.73241C11.3885 6.59308 10.0379 8.82727 9.26491 11.2655H5.84994C4.47465 11.2655 3.35562 12.384 3.35562 13.7589V19.3506C3.35562 19.7498 3.67905 20.0732 4.0782 20.0732C4.47734 20.0732 4.80077 19.7498 4.80077 19.3506V13.7589C4.80077 13.1809 5.2714 12.7107 5.84994 12.7107H8.87973C8.63541 13.8364 8.5091 14.9965 8.5091 16.176C8.5091 20.4987 10.1925 24.5629 13.2491 27.6194C16.4041 30.7744 20.5484 32.3519 24.6926 32.3519C28.8368 32.3519 32.9811 30.7744 36.1361 27.6194C39.1928 24.5628 40.8761 20.4987 40.8761 16.176C40.8761 14.9965 40.7498 13.8365 40.5054 12.7107H43.5352C44.1138 12.7107 44.5844 13.1809 44.5844 13.7589V41.7783H4.80077V22.6263C4.80077 22.2271 4.47734 21.9037 4.0782 21.9037C3.67905 21.9037 3.35562 22.2271 3.35562 22.6263V41.7783H3.28048C1.47154 41.7784 0 43.2499 0 45.0588V45.3516C0 47.1605 1.47154 48.6321 3.28048 48.6321H31.7739C32.173 48.6321 32.4965 48.3087 32.4965 47.9095C32.4965 47.5104 32.173 47.187 31.7739 47.187H3.28048C2.26849 47.187 1.44514 46.3636 1.44514 45.3516V45.0588C1.44514 44.0468 2.26849 43.2234 3.28048 43.2234H45.7195C46.7315 43.2234 47.5549 44.0468 47.5549 45.0588V45.3516C47.5549 46.3636 46.7315 47.187 45.7195 47.187H35.0495C34.6504 47.187 34.327 47.5104 34.327 47.9095C34.327 48.3087 34.6504 48.6321 35.0495 48.6321H45.7195C47.5284 48.6321 49 47.1606 49 45.3516V45.0588C49 43.3545 47.6936 41.9503 46.0297 41.7934ZM35.1143 26.5975C29.3678 32.344 20.0175 32.344 14.2711 26.5975C11.4873 23.8139 9.95424 20.1128 9.95424 16.176C9.95424 14.8284 10.134 13.5085 10.482 12.2434C10.4965 12.2052 10.5081 12.1656 10.516 12.1245C11.1936 9.74032 12.4701 7.55526 14.2711 5.75442C17.1443 2.88118 20.9185 1.44452 24.6927 1.44452C28.4669 1.44452 32.2411 2.88118 35.1143 5.75442C36.9152 7.55526 38.1918 9.74041 38.8694 12.1245C38.8773 12.1656 38.8889 12.2051 38.9034 12.2433C39.2514 13.5084 39.4311 14.8283 39.4311 16.1759C39.431 20.1129 37.898 23.814 35.1143 26.5975Z" fill="#EEAF30"/>
</svg>
