<svg width="60" height="60" viewBox="0 0 59 59" fill="none" xmlns="http://www.w3.org/2000/svg">
<path d="M28.4083 23.4385C28.4019 23.4385 28.3961 23.4385 28.3895 23.4385C23.13 23.4385 18.8454 27.7512 18.835 33.0604C18.8246 38.3763 23.1023 42.7094 28.3707 42.7196H28.3895C33.6491 42.7196 37.9337 38.407 37.9441 33.0978C37.9544 27.7821 33.6768 23.4489 28.4083 23.4385ZM28.3894 40.9879C28.3844 40.9879 28.379 40.9879 28.374 40.9879C24.0607 40.9794 20.5583 37.4248 20.5669 33.0639C20.5753 28.708 24.0831 25.1704 28.3896 25.1704H28.405C32.7183 25.1789 36.2207 28.7335 36.2122 33.0944C36.2037 37.4503 32.6959 40.9881 28.3894 40.9879Z" fill="#EEAF30"/>
<path d="M4.50227 38.0164L4.49707 40.6827C4.49488 41.8198 5.50792 42.4115 6.47617 42.4811C7.18175 44.8321 9.33935 46.4746 11.8586 46.4796L36.3617 46.5269H36.3716C39.4736 46.5269 42.0003 44.0066 42.0057 40.9049L42.0334 28.6938C42.0346 28.2156 41.6477 27.8269 41.1694 27.8259C41.1689 27.8259 41.1682 27.8259 41.1675 27.8259C40.69 27.8259 40.3027 28.2124 40.3015 28.6899L40.2738 40.9014C40.2701 43.0499 38.5202 44.7952 36.3717 44.7952C36.3694 44.7952 36.3671 44.7952 36.3648 44.7952L11.8619 44.7478C10.2966 44.7448 8.93304 43.8293 8.31602 42.4661C9.18959 42.3474 9.86654 41.5993 9.86827 40.6933L9.87346 38.027C9.87439 37.5477 9.68861 37.0966 9.35043 36.7571C8.93039 36.3923 8.47247 36.2162 7.97657 36.2289L7.98939 29.7479L8.07021 29.748H8.07379C9.06166 29.748 9.8663 28.9453 9.86827 27.957L9.87346 25.2906C9.87519 24.4091 9.23716 23.6743 8.39823 23.5228C9.04077 22.2183 10.3838 21.3477 11.8992 21.3477H11.9069L36.4098 21.395C38.3333 21.3987 39.9508 22.7774 40.2559 24.6732C40.3244 25.0987 40.692 25.4017 41.1099 25.4017C41.1556 25.4017 41.2019 25.3981 41.2484 25.3906C41.7206 25.3147 42.0417 24.8703 41.9658 24.3981C41.5253 21.66 39.1901 19.6687 36.4133 19.6632L11.9104 19.6159C11.9066 19.6159 11.903 19.6159 11.8991 19.6159C9.43933 19.6159 7.29351 21.2061 6.54626 23.4898C5.50319 23.4813 4.50458 24.0892 4.50227 25.2804L4.49707 27.9467C4.49523 28.9258 5.2822 29.7246 6.25749 29.7431L6.24467 36.2284C5.28105 36.2559 4.50423 37.0457 4.50227 38.0164ZM8.12344 37.9792C8.14168 37.9976 8.14168 38.0172 8.14168 38.0236L8.13648 40.6899C8.13637 40.7244 8.10831 40.7525 8.07379 40.7525C8.07379 40.7525 8.07379 40.7525 8.07367 40.7525L6.29144 40.749C6.25333 40.7453 6.23244 40.7244 6.22897 40.6863L6.23417 38.02C6.23428 37.9855 6.26234 37.9574 6.29686 37.9574H6.29698L8.07933 37.9609C8.08568 37.9607 8.1052 37.9609 8.12344 37.9792ZM6.22909 27.9497L6.23428 25.2834C6.24664 25.2417 6.26754 25.2208 6.29709 25.2208L8.07933 25.2243C8.11385 25.2243 8.14191 25.2524 8.1418 25.2869L8.1366 27.9533C8.13648 27.9878 8.10843 28.0158 8.07391 28.0158C8.07391 28.0158 8.07391 28.0158 8.07379 28.0158L6.29155 28.0124C6.25703 28.0124 6.22897 27.9843 6.22909 27.9497Z" fill="#EEAF30"/>
<path d="M48.7241 0C43.1852 0 38.6791 4.50617 38.6791 10.045C38.6791 10.9152 38.7905 11.7598 38.9994 12.5655L5.9746 12.502C5.97044 12.502 5.9664 12.502 5.96224 12.502C2.7109 12.502 0.0622456 15.1438 0.0555489 18.3969L1.27538e-05 47.025C-0.00322012 48.6026 0.608255 50.0871 1.72175 51.2048C2.83513 52.3225 4.31717 52.9397 5.89493 52.943L6.31082 52.9438L6.30401 56.4247C6.30112 57.8123 7.42766 58.9434 8.8156 58.9463L14.0959 58.9559H14.1014C15.4863 58.9559 16.6148 57.8304 16.6177 56.4444L16.6245 52.964L30.3803 52.991L30.3742 56.4687C30.3727 57.1409 30.6331 57.7735 31.1076 58.2497C31.5819 58.7259 32.2133 58.9889 32.8858 58.9904L38.1662 59H38.1716C38.8415 59 39.4717 58.7396 39.9466 58.2665C40.4226 57.7922 40.6854 57.1607 40.6869 56.4886L40.6938 53.0114L42.2961 53.0146H42.3062C43.8803 53.0146 45.3607 52.4032 46.476 51.2924C47.594 50.1787 48.2111 48.6964 48.2137 47.1186L48.2311 38.6231C48.2321 38.1448 47.8451 37.7563 47.367 37.7554C47.3663 37.7554 47.3657 37.7554 47.3651 37.7554C46.8877 37.7554 46.5002 38.1419 46.4992 38.6196L46.4818 47.1155C46.48 48.2307 46.0438 49.2783 45.2537 50.0653C44.4653 50.8505 43.4188 51.2827 42.3064 51.2827C42.304 51.2827 42.3016 51.2827 42.2992 51.2827L5.89828 51.2111C4.78305 51.2088 3.7356 50.7724 2.94851 49.9825C2.16165 49.1925 1.72949 48.1434 1.7318 47.0284L1.78722 18.4003C1.79195 16.1009 3.66379 14.2338 5.96213 14.2338H5.9709L39.6254 14.2986C40.9301 17.0781 43.4715 19.1661 46.5367 19.8494L46.5303 34.5799C46.5301 35.0581 46.9176 35.446 47.3959 35.4462H47.3963C47.8744 35.4462 48.262 35.0587 48.2622 34.5806L48.2687 20.0792C48.4197 20.086 48.5714 20.0899 48.7241 20.0899C54.2629 20.0899 58.7691 15.5837 58.7691 10.0449C58.7691 4.50605 54.2629 0 48.7241 0V0ZM14.8858 56.4409C14.8849 56.8731 14.5331 57.224 14.101 57.224C14.1004 57.224 14.0999 57.224 14.0993 57.224L8.81895 57.2144C8.38632 57.2135 8.03498 56.8608 8.0359 56.4281L8.04272 52.9471L14.8926 52.9606L14.8858 56.4409ZM38.955 56.4851C38.9546 56.6947 38.8726 56.8917 38.7241 57.0397C38.5762 57.187 38.3801 57.2682 38.1713 57.2682C38.1707 57.2682 38.1701 57.2682 38.1695 57.2682L32.8892 57.2586C32.4566 57.2577 32.1052 56.905 32.1062 56.4721L32.1123 52.9946L38.9619 53.0081L38.955 56.4851ZM48.7241 18.3581C44.1402 18.3581 40.411 14.6289 40.411 10.045C40.411 5.46114 44.1402 1.7319 48.7241 1.7319C53.308 1.7319 57.0372 5.46114 57.0372 10.045C57.0372 14.6289 53.308 18.3581 48.7241 18.3581Z" fill="#EEAF30"/>
<path d="M53.5846 6.01236C53.2069 5.71921 52.6628 5.78791 52.3696 6.16569L47.7959 12.0607L45.0261 9.10622C44.699 8.7573 44.1511 8.73952 43.802 9.06674C43.4532 9.39383 43.4354 9.94192 43.7625 10.2907L47.2263 13.9854C47.3905 14.1605 47.6192 14.2592 47.8581 14.2592C47.8715 14.2592 47.885 14.2589 47.8985 14.2583C48.1516 14.2465 48.3869 14.1243 48.5423 13.9241L53.738 7.22746C54.031 6.84956 53.9623 6.30551 53.5846 6.01236Z" fill="#EEAF30"/>
<path d="M28.3897 27.0752C25.0791 27.0752 22.3857 29.7685 22.3857 33.0791C22.3857 36.3897 25.0791 39.083 28.3897 39.083C31.7002 39.083 34.3936 36.3897 34.3936 33.0791C34.3936 29.7685 31.7002 27.0752 28.3897 27.0752ZM28.3897 37.3511C26.034 37.3511 24.1176 35.4347 24.1176 33.0791C24.1176 30.7235 26.034 28.8071 28.3897 28.8071C30.7453 28.8071 32.6617 30.7235 32.6617 33.0791C32.6617 35.4347 30.7453 37.3511 28.3897 37.3511Z" fill="#EEAF30"/>
</svg>
