<svg width="60" height="60" viewBox="0 0 46 46" fill="none" xmlns="http://www.w3.org/2000/svg">
<g clip-path="url(#clip0)">
<path d="M3.83333 39.4834H32.9667C35.0827 39.4808 36.7975 37.7661 36.8 35.65V31.8167H42.1667C44.2827 31.8142 45.9975 30.0994 46 27.9834V10.35C45.9975 8.23399 44.2827 6.51923 42.1667 6.51669H21.4667C21.0432 6.51669 20.7 6.85994 20.7 7.28336C20.7 7.70678 21.0432 8.05003 21.4667 8.05003H42.1667C43.4369 8.05003 44.4667 9.07977 44.4667 10.35V21.0834H36.8V18.0167C36.7975 15.9007 35.0827 14.1859 32.9667 14.1834H10.7333V10.35C10.7333 9.07977 11.7631 8.05003 13.0333 8.05003H17.6333C18.0568 8.05003 18.4 7.70678 18.4 7.28336C18.4 6.85994 18.0568 6.51669 17.6333 6.51669H13.0333C10.9173 6.51923 9.20253 8.23399 9.2 10.35V14.1834H3.83333C1.71729 14.1859 0.00253469 15.9007 0 18.0167V35.65C0.00253469 37.7661 1.71729 39.4808 3.83333 39.4834ZM32.9667 37.95H3.83333C2.56308 37.95 1.53333 36.9203 1.53333 35.65V34.8834H35.2667V35.65C35.2667 36.9203 34.2369 37.95 32.9667 37.95ZM1.53333 30.2834H35.2667V33.35H1.53333V30.2834ZM42.1667 30.2834H36.8V27.2167H44.4667V27.9834C44.4667 29.2536 43.4369 30.2834 42.1667 30.2834ZM44.4667 22.6167V25.6834H36.8V22.6167H44.4667ZM3.83333 15.7167H32.9667C34.2369 15.7167 35.2667 16.7464 35.2667 18.0167V28.75H1.53333V18.0167C1.53333 16.7464 2.56308 15.7167 3.83333 15.7167Z" fill="#EEAF30"/>
<path d="M23.3834 26.45C24.3634 26.4506 25.3126 26.1083 26.0667 25.4825C26.8198 26.1101 27.7698 26.4527 28.7501 26.45C31.0789 26.45 32.9667 24.5622 32.9667 22.2334C32.9667 19.9046 31.0789 18.0167 28.7501 18.0167C27.7698 18.0141 26.8198 18.3566 26.0667 18.9842C24.6336 17.7988 22.5931 17.6923 21.0443 18.7221C19.4956 19.7519 18.8045 21.6748 19.3433 23.4549C19.8821 25.2351 21.5235 26.4519 23.3834 26.45ZM28.7501 19.55C30.232 19.55 31.4334 20.7514 31.4334 22.2334C31.4334 23.7153 30.232 24.9167 28.7501 24.9167C28.1299 24.9173 27.5292 24.7002 27.0527 24.3034C27.7819 23.0197 27.7819 21.447 27.0527 20.1634C27.5292 19.7665 28.1299 19.5495 28.7501 19.55ZM23.3834 19.55C24.8654 19.55 26.0667 20.7514 26.0667 22.2334C26.0667 23.7153 24.8654 24.9167 23.3834 24.9167C21.9014 24.9167 20.7001 23.7153 20.7001 22.2334C20.7001 20.7514 21.9014 19.55 23.3834 19.55Z" fill="#EEAF30"/>
</g>
<defs>
<clipPath id="clip0">
<rect width="46" height="46" fill="white"/>
</clipPath>
</defs>
</svg>
