<svg width="50" height="50" viewBox="0 0 33 39" fill="none" xmlns="http://www.w3.org/2000/svg">
<path d="M32.3992 31.8757C32.7214 31.8757 32.9825 31.6157 32.9825 31.2949V4.57348C32.9825 2.96285 31.6669 1.65252 30.0498 1.65252H28.8812C28.406 0.67549 27.4 0 26.2384 0H2.93344C1.31593 0 0 1.31033 0 2.92095V13.8327C0 14.1535 0.261147 14.4135 0.583266 14.4135C0.905384 14.4135 1.16653 14.1535 1.16653 13.8327V2.92095C1.16653 1.95081 1.95915 1.16157 2.93344 1.16157H26.2384C27.2131 1.16157 28.0061 1.95081 28.0061 2.92095V28.851H23.4652C22.5599 28.851 21.8235 29.5843 21.8235 30.4857V35.1792H2.93344C1.95915 35.1792 1.16653 34.3903 1.16653 33.4206V16.4656C1.16653 16.1449 0.905384 15.8848 0.583266 15.8848C0.261147 15.8848 0 16.1449 0 16.4656V33.4206C0 35.0308 1.31593 36.3408 2.93344 36.3408H3.82226C3.95571 37.8291 5.21447 39 6.74325 39H30.0498C31.6668 39 32.9824 37.6897 32.9824 36.079V34.0053C32.9824 33.6845 32.7213 33.4245 32.3992 33.4245C32.077 33.4245 31.8159 33.6845 31.8159 34.0053V36.079C31.8159 37.0492 31.0236 37.8384 30.0498 37.8384H6.74333C5.8584 37.8384 5.12348 37.1872 4.9961 36.3408H22.3997C22.4021 36.3408 22.4046 36.3411 22.407 36.3411C22.559 36.3411 22.7108 36.2823 22.8251 36.1652L29.0074 29.8369C29.1121 29.7298 29.1726 29.5812 29.1726 29.4317V2.81409H30.0498C31.0237 2.81409 31.816 3.60334 31.816 4.57348V31.2949C31.816 31.6157 32.0771 31.8757 32.3992 31.8757ZM23.4652 30.0126H27.2086L22.99 34.3307V30.4857C22.99 30.2248 23.2032 30.0126 23.4652 30.0126Z" fill="#EEAF30"/>
<path d="M23.1685 27.0635C23.1685 26.7427 22.9073 26.4827 22.5852 26.4827H4.57155C4.24943 26.4827 3.98828 26.7427 3.98828 27.0635C3.98828 27.3842 4.24943 27.6443 4.57155 27.6443H22.5852C22.9073 27.6443 23.1685 27.3842 23.1685 27.0635Z" fill="#EEAF30"/>
<path d="M4.39381 29.4045C4.07169 29.4045 3.81055 29.6646 3.81055 29.9853C3.81055 30.3061 4.07169 30.5661 4.39381 30.5661H17.1868C17.5089 30.5661 17.77 30.3061 17.77 29.9853C17.77 29.6646 17.5089 29.4045 17.1868 29.4045H4.39381Z" fill="#EEAF30"/>
<path d="M3.98828 24.1415C3.98828 24.4622 4.24943 24.7223 4.57155 24.7223H22.5852C22.9073 24.7223 23.1685 24.4622 23.1685 24.1415C23.1685 23.8207 22.9073 23.5607 22.5852 23.5607H4.57155C4.24943 23.5607 3.98828 23.8207 3.98828 24.1415Z" fill="#EEAF30"/>
<path d="M20.8418 17.2788C20.8418 17.2806 20.842 17.2823 20.842 17.2841V18.9795C20.842 19.7304 21.367 20.36 22.0703 20.5275V21.6165C22.0703 21.9373 22.3315 22.1973 22.6536 22.1973C22.9757 22.1973 23.2368 21.9373 23.2368 21.6165V20.5278C23.9405 20.3605 24.4659 19.7306 24.4659 18.9795V7.23402C24.822 7.21172 25.1687 7.34088 25.4206 7.59171C25.6547 7.82549 25.7838 8.13547 25.7838 8.46458V11.7033C25.7838 12.024 26.0449 12.284 26.367 12.284C26.6891 12.284 26.9503 12.024 26.9503 11.7033V8.46458C26.9503 7.82572 26.7003 7.22442 26.2459 6.77086C25.7918 6.31855 25.188 6.06951 24.5458 6.06951C24.5192 6.06951 24.4925 6.07036 24.4659 6.07129V5.16976C24.4659 4.29123 23.7481 3.57648 22.8658 3.57648H22.4421C21.5598 3.57648 20.842 4.29123 20.842 5.16976V11.1559C20.842 11.1577 20.8418 11.1594 20.8418 11.1612C20.8418 11.163 20.842 11.1647 20.842 11.1665V17.2736C20.842 17.2753 20.8418 17.277 20.8418 17.2788ZM23.2994 16.698H22.0086V11.742H23.2994V16.698ZM22.8658 19.4112H22.4421C22.2031 19.4112 22.0086 19.2175 22.0086 18.9795V17.8596H23.2994V18.9794C23.2994 19.2175 23.1049 19.4112 22.8658 19.4112ZM22.4422 4.73804H22.8659C23.1049 4.73804 23.2994 4.93172 23.2994 5.16976V10.5804H22.0086V5.16976C22.0086 4.93172 22.2031 4.73804 22.4422 4.73804Z" fill="#EEAF30"/>
</svg>
