<svg width="60" height="60" viewBox="0 0 51 51" fill="none" xmlns="http://www.w3.org/2000/svg">
<path d="M26.2872 24.2283V19.7603C26.2872 18.7772 25.4874 17.9774 24.5043 17.9774H5.58957C4.60641 17.9774 3.80664 18.7772 3.80664 19.7603V24.2283C3.80664 25.2115 4.60641 26.0113 5.58957 26.0113H24.5043C25.4875 26.0113 26.2872 25.2115 26.2872 24.2283ZM5.32308 24.2283V19.7603C5.32308 19.6134 5.44267 19.4938 5.58957 19.4938H24.5043C24.6513 19.4938 24.7708 19.6134 24.7708 19.7603V24.2283C24.7708 24.3752 24.6512 24.4948 24.5043 24.4948H5.58957C5.44267 24.4948 5.32308 24.3752 5.32308 24.2283Z" fill="#EEAF30"/>
<path d="M50.9431 29.9974L47.2805 13.1483C47.1393 12.4962 46.7525 11.9392 46.1914 11.58C45.63 11.2207 44.9619 11.1025 44.3163 11.2459L30.1247 14.2674C29.8231 11.6674 27.6089 9.64204 24.9293 9.64204H22.0756L22.0396 1.68721C22.0372 1.14544 21.7127 0.66018 21.2129 0.451013C20.7132 0.241845 20.1398 0.35113 19.7521 0.729633L17.6032 2.82747L15.643 0.482959C15.3945 0.185737 15.0298 0.00983047 14.6425 0.000327458C14.2556 -0.00816459 13.8824 0.148837 13.6198 0.433523L11.348 2.89652L10.2855 1.69116C9.91154 1.26696 9.32821 1.12219 8.79918 1.32185C8.27025 1.52172 7.92844 2.01628 7.92844 2.58171V9.64204H5.23171C2.34694 9.64204 0 11.989 0 14.8737V21.9879C0 22.4066 0.33948 22.7461 0.758219 22.7461C1.17696 22.7461 1.51644 22.4066 1.51644 21.9879V14.8737C1.51644 12.8251 3.1831 11.1585 5.23171 11.1585H7.92844V14.0023H7.00988C6.59115 14.0023 6.25167 14.3418 6.25167 14.7605C6.25167 15.1793 6.59115 15.5187 7.00988 15.5187H23.6251C24.0438 15.5187 24.3833 15.1793 24.3833 14.7605C24.3833 14.3418 24.0438 14.0023 23.6251 14.0023H22.0953L22.0825 11.1585H24.9293C26.9779 11.1585 28.6446 12.8251 28.6446 14.8737V45.5179C28.6446 47.5665 26.9779 49.2332 24.9293 49.2332H21.0018C20.583 49.2332 20.2435 49.5727 20.2435 49.9914C20.2435 50.4102 20.583 50.7496 21.0018 50.7496H24.9293C27.8141 50.7496 30.161 48.4027 30.161 45.5179V37.2345C30.1886 37.2314 49.0403 32.976 49.0403 32.976C50.3803 32.6764 51.2341 31.3404 50.9431 29.9974ZM9.44488 14.0024V3.03078L10.3348 4.04032C10.5866 4.32591 10.9492 4.49222 11.3299 4.49646C11.7089 4.49889 12.077 4.3427 12.335 4.06286L14.6035 1.60371L16.5574 3.94074C16.7973 4.22765 17.1491 4.40305 17.5226 4.42196C17.895 4.44096 18.2638 4.30185 18.5314 4.04062L20.525 2.09433L20.5788 14.0024H9.44488ZM30.1609 19.3716L46.3659 16.0802L47.0547 19.2486L30.1609 22.6788V19.3716ZM44.6386 12.7277C44.8936 12.6712 45.1548 12.717 45.3737 12.8572C45.5924 12.9972 45.7431 13.2146 45.7984 13.4699L46.0437 14.5982L30.1608 17.8241V15.81L44.6386 12.7277ZM48.7078 31.4964L30.1609 35.6847V24.2261L47.3767 20.7304L49.461 30.3189C49.5761 30.8496 49.2388 31.3776 48.7078 31.4964Z" fill="#EEAF30"/>
<path d="M3.73633 32.1972C3.73633 33.1332 4.49778 33.8947 5.43373 33.8947H8.53686C9.47281 33.8947 10.2343 33.1333 10.2343 32.1972V30.3216C10.2343 29.3857 9.47281 28.6242 8.53686 28.6242H5.43373C4.49778 28.6242 3.73633 29.3857 3.73633 30.3216V32.1972ZM5.25277 30.3216C5.25277 30.2218 5.33395 30.1406 5.43373 30.1406H8.53686C8.63665 30.1406 8.71783 30.2218 8.71783 30.3216V32.1972C8.71783 32.297 8.63665 32.3783 8.53686 32.3783H5.43373C5.33395 32.3783 5.25277 32.2971 5.25277 32.1972V30.3216Z" fill="#EEAF30"/>
<path d="M21.5061 33.8947H24.6092C25.5452 33.8947 26.3067 33.1333 26.3067 32.1972V30.3216C26.3067 29.3857 25.5453 28.6242 24.6092 28.6242H21.5061C20.5701 28.6242 19.8086 29.3857 19.8086 30.3216V32.1972C19.8087 33.1333 20.5701 33.8947 21.5061 33.8947ZM21.3251 30.3216C21.3251 30.2218 21.4063 30.1406 21.5062 30.1406H24.6093C24.7091 30.1406 24.7904 30.2218 24.7904 30.3216V32.1972C24.7904 32.297 24.7092 32.3783 24.6093 32.3783H21.5062C21.4064 32.3783 21.3251 32.2971 21.3251 32.1972V30.3216Z" fill="#EEAF30"/>
<path d="M13.4708 28.6242C12.5349 28.6242 11.7734 29.3857 11.7734 30.3216V32.1972C11.7734 33.1332 12.5349 33.8947 13.4708 33.8947H16.574C17.5099 33.8947 18.2714 33.1333 18.2714 32.1972V30.3216C18.2714 29.3857 17.5099 28.6242 16.574 28.6242H13.4708ZM16.755 30.3216V32.1972C16.755 32.297 16.6739 32.3783 16.5741 32.3783H13.4709C13.3712 32.3783 13.29 32.2971 13.29 32.1972V30.3216C13.29 30.2218 13.3712 30.1406 13.4709 30.1406H16.5741C16.6738 30.1406 16.755 30.2218 16.755 30.3216Z" fill="#EEAF30"/>
<path d="M8.6395 35.4327H5.53637C4.60042 35.4327 3.83887 36.1942 3.83887 37.1301V39.0058C3.83887 39.9417 4.60032 40.7032 5.53637 40.7032H8.6395C9.57545 40.7032 10.337 39.9417 10.337 39.0058V37.1301C10.3369 36.1942 9.57545 35.4327 8.6395 35.4327ZM8.82047 39.0058C8.82047 39.1055 8.73929 39.1867 8.6394 39.1867H5.53637C5.43659 39.1867 5.3553 39.1055 5.3553 39.0058V37.1301C5.3553 37.0304 5.43648 36.9492 5.53637 36.9492H8.6395C8.73929 36.9492 8.82057 37.0304 8.82057 37.1301V39.0058H8.82047Z" fill="#EEAF30"/>
<path d="M21.6243 47.3878H24.7274C25.6633 47.3878 26.4249 46.6264 26.4249 45.6903V37.5906C26.4249 36.6547 25.6634 35.8931 24.7274 35.8931H21.6243C20.6883 35.8931 19.9268 36.6546 19.9268 37.5906V45.6903C19.9269 46.6263 20.6883 47.3878 21.6243 47.3878ZM21.4433 37.5906C21.4433 37.4908 21.5245 37.4096 21.6244 37.4096H24.7275C24.8273 37.4096 24.9086 37.4907 24.9086 37.5906V45.6903C24.9086 45.7901 24.8274 45.8714 24.7275 45.8714H21.6244C21.5246 45.8714 21.4433 45.7902 21.4433 45.6903V37.5906Z" fill="#EEAF30"/>
<path d="M16.7341 35.4327H13.631C12.695 35.4327 11.9336 36.1942 11.9336 37.1301V39.0058C11.9336 39.9417 12.695 40.7032 13.631 40.7032H16.7341C17.6701 40.7032 18.4315 39.9417 18.4315 39.0058V37.1301C18.4315 36.1942 17.6701 35.4327 16.7341 35.4327ZM16.9151 39.0058C16.9151 39.1055 16.8339 39.1867 16.7341 39.1867H13.631C13.5312 39.1867 13.45 39.1055 13.45 39.0058V37.1301C13.45 37.0304 13.5312 36.9492 13.631 36.9492H16.7341C16.8339 36.9492 16.9151 37.0304 16.9151 37.1301V39.0058Z" fill="#EEAF30"/>
<path d="M3.73633 45.8146C3.73633 46.7505 4.49778 47.512 5.43373 47.512H8.53686C9.47281 47.512 10.2343 46.7505 10.2343 45.8146V43.9389C10.2343 43.003 9.47281 42.2414 8.53686 42.2414H5.43373C4.49778 42.2414 3.73633 43.0029 3.73633 43.9389V45.8146ZM5.25277 43.9388C5.25277 43.839 5.33395 43.7578 5.43373 43.7578H8.53686C8.63665 43.7578 8.71783 43.8389 8.71783 43.9388V45.8145C8.71783 45.9142 8.63665 45.9954 8.53686 45.9954H5.43373C5.33395 45.9954 5.25277 45.9142 5.25277 45.8145V43.9388Z" fill="#EEAF30"/>
<path d="M16.6326 42.2414H13.5294C12.5935 42.2414 11.832 43.0029 11.832 43.9389V45.8146C11.832 46.7505 12.5935 47.512 13.5294 47.512H16.6326C17.5685 47.512 18.33 46.7505 18.33 45.8146V43.9389C18.33 43.0029 17.5685 42.2414 16.6326 42.2414ZM16.8135 45.8146C16.8135 45.9143 16.7323 45.9955 16.6326 45.9955H13.5294C13.4296 45.9955 13.3485 45.9143 13.3485 45.8146V43.9389C13.3485 43.8391 13.4296 43.7579 13.5294 43.7579H16.6326C16.7323 43.7579 16.8135 43.839 16.8135 43.9389V45.8146Z" fill="#EEAF30"/>
<path d="M17.5644 49.2332H5.23171C3.1831 49.2332 1.51644 47.5666 1.51644 45.518V25.4252C1.51644 25.0064 1.17696 24.667 0.758219 24.667C0.33948 24.667 0 25.0064 0 25.4252V45.518C0 48.4027 2.34694 50.7497 5.23171 50.7497H17.5644C17.9831 50.7497 18.3226 50.4102 18.3226 49.9915C18.3226 49.5727 17.9831 49.2332 17.5644 49.2332Z" fill="#EEAF30"/>
</svg>
