<svg width="56" height="56" viewBox="0 0 56 56" fill="none" xmlns="http://www.w3.org/2000/svg">
<g clip-path="url(#clip0)">
<path d="M55.5514 36.9871L45.5994 6.43098C44.8527 4.1361 43.2569 2.26976 41.1061 1.17559C38.9552 0.0815254 36.507 -0.109266 34.2129 0.637993L23.3986 4.15991H8.14623C3.65445 4.15991 0 7.81436 0 12.3061V16.506C0 16.9604 0.368308 17.3288 0.822852 17.3288C1.2774 17.3288 1.6457 16.9604 1.6457 16.506V12.3061C1.6457 8.7218 4.56178 5.80561 8.14623 5.80561H30.7725C34.3569 5.80561 37.273 8.7218 37.273 12.3061V43.0567C37.273 43.5111 37.6413 43.8795 38.0958 43.8795C38.5504 43.8795 38.9187 43.5111 38.9187 43.0567V39.2965L47.3941 36.3022C47.8226 36.1508 48.0472 35.6806 47.8958 35.2522C47.7444 34.8237 47.2742 34.5992 46.8459 34.7505L38.9187 37.551V30.5871L45.5489 28.2448C45.9774 28.0934 46.202 27.6233 46.0506 27.1948C45.8992 26.7663 45.429 26.5418 45.0008 26.693L38.9187 28.8416V22.0953L44.3189 20.1873C44.7473 20.0359 44.9719 19.5658 44.8205 19.1374C44.6691 18.7087 44.1989 18.4844 43.7706 18.6356L38.9187 20.3499V12.3061C38.9187 7.81436 35.2642 4.15991 30.7725 4.15991H28.7129L34.7224 2.20273C36.5989 1.59162 38.601 1.74764 40.3599 2.64235C42.1188 3.53706 43.4239 5.0634 44.0345 6.94027L53.9866 37.4966C54.5976 39.3729 54.4415 41.375 53.5466 43.134C52.6517 44.8929 51.1255 46.198 49.2489 46.8088L38.4721 50.3196C38.76 49.4868 38.9187 48.5941 38.9187 47.6646V46.7869C38.9187 46.3325 38.5504 45.9641 38.0958 45.9641C37.6413 45.9641 37.273 46.3325 37.273 46.7869V47.6646C37.273 51.249 34.3569 54.1652 30.7725 54.1652H8.14623C4.56178 54.1652 1.6457 51.249 1.6457 47.6646V20.2362C1.6457 19.7818 1.2774 19.4134 0.822852 19.4134C0.368308 19.4134 0 19.7818 0 20.2362V47.6646C0 52.1564 3.65445 55.8109 8.14623 55.8109H30.7725C33.4982 55.8109 35.9139 54.4638 37.3933 52.4019L49.7585 48.3736C52.0529 47.6269 53.9192 46.0311 55.0133 43.8803C56.1076 41.7295 56.2987 39.2814 55.5514 36.9871V36.9871Z" fill="#EEAF30"/>
<path d="M6.91113 33.708C6.91113 34.1625 7.27944 34.5309 7.73398 34.5309H31.1067C31.5613 34.5309 31.9296 34.1625 31.9296 33.708C31.9296 33.2536 31.5613 32.8852 31.1067 32.8852H7.73398C7.27944 32.8852 6.91113 33.2536 6.91113 33.708Z" fill="#EEAF30"/>
<path d="M6.91113 27.0357C6.91113 27.4902 7.27944 27.8586 7.73398 27.8586H31.1067C31.5613 27.8586 31.9296 27.4902 31.9296 27.0357C31.9296 26.5813 31.5613 26.2129 31.1067 26.2129H7.73398C7.27944 26.2129 6.91113 26.5813 6.91113 27.0357Z" fill="#EEAF30"/>
<path d="M6.91113 13.9294C6.91113 14.3838 7.27944 14.7522 7.73398 14.7522H31.1067C31.5613 14.7522 31.9296 14.3838 31.9296 13.9294C31.9296 13.4749 31.5613 13.1065 31.1067 13.1065H7.73398C7.27944 13.1065 6.91113 13.4749 6.91113 13.9294Z" fill="#EEAF30"/>
<path d="M7.73398 47.8756H31.1067C31.5613 47.8756 31.9296 47.5072 31.9296 47.0527C31.9296 46.5983 31.5613 46.2299 31.1067 46.2299H7.73398C7.27944 46.2299 6.91113 46.5983 6.91113 47.0527C6.91113 47.5072 7.27944 47.8756 7.73398 47.8756Z" fill="#EEAF30"/>
<path d="M7.73398 41.0956H31.1067C31.5613 41.0956 31.9296 40.7272 31.9296 40.2728C31.9296 39.8184 31.5613 39.4499 31.1067 39.4499H7.73398C7.27944 39.4499 6.91113 39.8184 6.91113 40.2728C6.91113 40.7272 7.27944 41.0956 7.73398 41.0956Z" fill="#EEAF30"/>
<path d="M7.73398 21.4245H31.1067C31.5613 21.4245 31.9296 21.0561 31.9296 20.6017C31.9296 20.1472 31.5613 19.7788 31.1067 19.7788H7.73398C7.27944 19.7788 6.91113 20.1472 6.91113 20.6017C6.91113 21.0561 7.27944 21.4245 7.73398 21.4245Z" fill="#EEAF30"/>
</g>
<defs>
<clipPath id="clip0">
<rect width="56" height="56" fill="white"/>
</clipPath>
</defs>
</svg>
