<svg width="15" height="15" viewBox="0 0 15 15" fill="none" xmlns="http://www.w3.org/2000/svg">
<g clip-path="url(#clip0)">
<path d="M10.7804 15C10.2962 15 9.81615 14.9144 9.34668 14.7438C7.27847 13.9925 5.35872 12.7688 3.79492 11.2051C2.23112 9.64129 1.00744 7.72152 0.256149 5.6533C0.0147229 4.98864 -0.0565242 4.30254 0.044458 3.61397C0.139054 2.969 0.388887 2.34286 0.766977 1.80324C1.14674 1.26124 1.65302 0.810435 2.23109 0.499579C2.84753 0.168099 3.52036 0 4.23096 0C4.45196 0 4.64297 0.154417 4.68929 0.370502L5.42502 3.80393C5.45833 3.9594 5.41055 4.12117 5.29814 4.23361L4.04097 5.49074C5.22692 7.84863 7.15129 9.77301 9.50919 10.959L10.7663 9.70179C10.8787 9.58938 11.0405 9.54166 11.196 9.57491L14.6294 10.3106C14.8455 10.357 14.9999 10.548 14.9999 10.769C14.9999 11.4796 14.8318 12.1524 14.5003 12.7689C14.1895 13.3469 13.7387 13.8532 13.1967 14.233C12.6571 14.6111 12.0309 14.8609 11.3859 14.9555C11.1838 14.9852 10.9817 15 10.7804 15ZM3.85644 0.957969C2.91913 1.06144 2.08719 1.55273 1.53473 2.34122C0.913485 3.22786 0.768618 4.31839 1.13727 5.33325C2.58167 9.30943 5.69055 12.4183 9.66674 13.8627C10.6816 14.2314 11.7721 14.0865 12.6588 13.4653C13.4473 12.9128 13.9385 12.0809 14.042 11.1435L11.2489 10.545L9.93602 11.858C9.79631 11.9977 9.58404 12.0348 9.40527 11.9508C6.61662 10.6407 4.35933 8.38337 3.04923 5.59471C2.96524 5.41592 3.00232 5.20364 3.14204 5.06396L4.45495 3.75105L3.85644 0.957969Z" fill="white"/>
<path d="M14.5309 7.96842C14.2721 7.96842 14.0622 7.75855 14.0622 7.49969C14.0622 3.88127 11.1184 0.937461 7.49998 0.937461C7.24112 0.937461 7.03125 0.727587 7.03125 0.468731C7.03125 0.209874 7.24112 0 7.49998 0C9.50325 0 11.3866 0.780085 12.8031 2.19659C14.2196 3.61309 14.9997 5.49642 14.9997 7.49969C14.9997 7.75855 14.7898 7.96842 14.5309 7.96842Z" fill="white"/>
<path d="M12.656 7.96948C12.3972 7.96948 12.1873 7.75961 12.1873 7.50075C12.1873 4.91617 10.0846 2.81344 7.49998 2.81344C7.24112 2.81344 7.03125 2.60356 7.03125 2.34471C7.03125 2.08585 7.24112 1.87598 7.49998 1.87598C10.6015 1.87598 13.1248 4.39924 13.1248 7.50075C13.1248 7.75961 12.9149 7.96948 12.656 7.96948Z" fill="white"/>
<path d="M10.7811 7.96858C10.5222 7.96858 10.3124 7.75871 10.3124 7.49985C10.3124 5.94908 9.05075 4.68746 7.49998 4.68746C7.24112 4.68746 7.03125 4.47759 7.03125 4.21873C7.03125 3.95987 7.24112 3.75 7.49998 3.75C9.56767 3.75 11.2498 5.43216 11.2498 7.49985C11.2498 7.75871 11.04 7.96858 10.7811 7.96858Z" fill="white"/>
</g>
<defs>
<clipPath id="clip0">
<rect width="15" height="15" fill="white"/>
</clipPath>
</defs>
</svg>
