<svg width="14" height="17" viewBox="0 0 14 17" fill="none" xmlns="http://www.w3.org/2000/svg">
<path d="M7.30078 10.2969H5.73047V12.0664H10.1602V14.2812H5.73047V17H2.15625V14.2812H0.527344V12.0664H2.15625V10.2969H0.527344V8.08203H2.15625V0.195312H7.03125C8.04688 0.195312 8.96484 0.296875 9.78516 0.5C10.6055 0.695312 11.3047 1 11.8828 1.41406C12.4688 1.82812 12.918 2.35938 13.2305 3.00781C13.5508 3.65625 13.7109 4.42578 13.7109 5.31641C13.7109 5.96484 13.6211 6.53906 13.4414 7.03906C13.2617 7.53125 13.0156 7.96484 12.7031 8.33984C12.3906 8.70703 12.0273 9.01562 11.6133 9.26562C11.1992 9.51562 10.7539 9.71875 10.2773 9.875C9.80078 10.0234 9.30859 10.1328 8.80078 10.2031C8.29297 10.2656 7.79297 10.2969 7.30078 10.2969ZM5.73047 2.42188V8.08203H7.11328C8.12109 8.08203 8.875 7.82422 9.375 7.30859C9.88281 6.79297 10.1367 6.09375 10.1367 5.21094C10.1367 4.35156 9.88281 3.67188 9.375 3.17188C8.875 2.67188 8.12109 2.42188 7.11328 2.42188H5.73047Z" fill="#0039A6"/>
</svg>
