<svg width="25" height="25" viewBox="0 0 25 25" fill="none" xmlns="http://www.w3.org/2000/svg">
<g clip-path="url(#clip0)">
<path d="M24.6062 0.839547C24.5954 0.730758 24.5482 0.625875 24.4671 0.544088L24.4619 0.538814C24.3797 0.455855 24.2733 0.407467 24.1629 0.396578C21.5673 -0.193803 18.845 -0.119242 16.2856 0.613033C13.7038 1.35166 11.3354 2.7458 9.43654 4.64467L9.11144 4.96977H4.65836C4.52887 4.96977 4.4047 5.02124 4.3131 5.11279L0.14303 9.28281C-0.0476434 9.47348 -0.0476434 9.78271 0.14303 9.97343L2.1254 11.9559L1.68273 12.3985C1.49205 12.5892 1.49205 12.8984 1.68273 13.0892L3.37492 14.7813L2.04645 17.1327C1.93859 17.3237 1.97125 17.5631 2.12633 17.7182L2.74367 18.3355C1.7091 19.4807 0.956556 20.8603 0.557923 22.3551L0.0165168 24.3849C-0.0284051 24.5533 0.0197882 24.7328 0.14303 24.8561C0.235804 24.9488 0.360511 24.9991 0.488343 24.9991C0.530238 24.9991 0.572572 24.9937 0.614124 24.9826L2.64391 24.4412C4.13869 24.0425 5.51837 23.29 6.66354 22.2553L7.2796 22.8714C7.37365 22.9654 7.4986 23.0144 7.62501 23.0144C7.70714 23.0144 7.78986 22.9937 7.86505 22.9513L10.2165 21.6228L11.9136 23.32C12.009 23.4153 12.1339 23.463 12.2589 23.463C12.3838 23.463 12.5088 23.4153 12.6041 23.32L13.0468 22.8772L15.0218 24.8522C15.1134 24.9438 15.2376 24.9953 15.3671 24.9953C15.4965 24.9953 15.6207 24.9438 15.7123 24.8522L19.8823 20.6822C19.9739 20.5906 20.0254 20.4665 20.0254 20.337V15.8987L20.3579 15.5662C22.2567 13.6673 23.6508 11.2989 24.3895 8.71709C25.122 6.15752 25.1966 3.4351 24.6062 0.839547ZM1.17892 9.62807L4.86066 5.94638H8.13478L3.70963 10.3716C3.70954 10.3717 3.70939 10.3718 3.70929 10.3719C3.70919 10.3721 3.7091 10.3722 3.70895 10.3723L2.81603 11.2652L1.17892 9.62807ZM2.3923 23.4975L1.17755 23.8215L1.50153 22.6067C1.85597 21.2778 2.52116 20.0499 3.43502 19.0268L5.97218 21.5639C4.94913 22.4779 3.72125 23.1431 2.3923 23.4975ZM7.70787 21.9184L7.05709 21.2676C7.04586 21.2536 7.0339 21.2399 7.02091 21.2269C7.00792 21.2139 6.99425 21.202 6.98024 21.1908L3.80836 18.0189C3.79713 18.0048 3.78517 17.9912 3.77218 17.9782C3.75919 17.9652 3.74552 17.9533 3.73151 17.942L3.07941 17.29L4.09171 15.498L9.49982 20.9062L7.70787 21.9184ZM19.049 20.1347L15.3673 23.8165L13.7376 22.1867L19.049 16.8753V20.1347ZM19.6676 14.8756L12.7022 21.841C12.7021 21.8411 12.7019 21.8413 12.7017 21.8414C12.7016 21.8416 12.7014 21.8417 12.7013 21.8419L12.259 22.2841L10.6449 20.67L10.6448 20.6699L4.32794 14.3531C4.32785 14.353 4.3277 14.3529 4.3276 14.3527L2.71862 12.7438L4.0546 11.4078L10.5715 17.9247C10.6669 18.02 10.7918 18.0677 10.9168 18.0677C11.0417 18.0677 11.1667 18.02 11.262 17.9247C11.4527 17.734 11.4527 17.4248 11.262 17.2341L4.74518 10.7172L10.1272 5.3352C13.7099 1.75239 18.7656 0.254781 23.7066 1.29628C24.748 6.2372 23.2504 11.2928 19.6676 14.8756Z" fill="#55CCFF"/>
<path d="M18.1956 9.92688C17.9259 9.92688 17.7072 10.1455 17.7072 10.4152L17.707 10.4462C17.7049 10.7158 17.9217 10.9362 18.1914 10.9384C18.1927 10.9384 18.1941 10.9385 18.1955 10.9385C18.4632 10.9385 18.6815 10.7223 18.6837 10.454L18.6839 10.4152C18.6839 10.1455 18.4652 9.92688 18.1956 9.92688Z" fill="#55CCFF"/>
<path d="M17.95 11.8135C17.7171 11.6774 17.4181 11.756 17.282 11.9888C16.723 12.9458 15.6881 13.5403 14.5813 13.5403C12.8581 13.5403 11.4561 12.1384 11.4561 10.4151C11.4561 8.69189 12.8581 7.28994 14.5813 7.28994C15.5077 7.28994 16.3808 7.69746 16.9769 8.40796C17.1503 8.6147 17.4584 8.64145 17.6648 8.46821C17.8714 8.29492 17.8984 7.98691 17.7251 7.78027C16.943 6.84795 15.7972 6.31323 14.5813 6.31323C12.3196 6.31323 10.4795 8.15332 10.4795 10.415C10.4795 12.6768 12.3196 14.5168 14.5813 14.5168C16.0339 14.5168 17.3919 13.7369 18.1253 12.4813C18.2614 12.2486 18.1828 11.9496 17.95 11.8135Z" fill="#55CCFF"/>
<path d="M12.4077 18.3791C12.3169 18.2877 12.1914 18.236 12.0625 18.236C11.9341 18.236 11.8081 18.2878 11.7173 18.3791C11.6265 18.4698 11.5742 18.5954 11.5742 18.7242C11.5742 18.8527 11.6265 18.9786 11.7173 19.0695C11.8081 19.1603 11.9341 19.2125 12.0625 19.2125C12.1915 19.2125 12.3169 19.1603 12.4077 19.0695C12.499 18.9781 12.5508 18.8527 12.5508 18.7242C12.5508 18.5958 12.499 18.4698 12.4077 18.3791Z" fill="#55CCFF"/>
</g>
<defs>
<clipPath id="clip0">
<rect width="25" height="25" fill="white"/>
</clipPath>
</defs>
</svg>
