<svg width="22" height="30" viewBox="0 0 22 30" fill="none" xmlns="http://www.w3.org/2000/svg">
<path d="M20.6634 16.0878L16.3318 9.29748C16.9455 8.97495 17.3653 8.33137 17.3653 7.59122C17.3653 6.7811 16.8624 6.08663 16.1526 5.80235L17.4648 1.21462C17.5214 1.01669 17.4662 0.803694 17.3207 0.658125C16.4478 -0.214724 15.0276 -0.214724 14.1547 0.658125C13.9459 0.866931 13.6683 0.981902 13.373 0.981902C13.0777 0.981902 12.8001 0.866931 12.59 0.656765L12.5873 0.653988C11.7175 -0.215914 10.2997 -0.218351 9.42638 0.648832L9.41011 0.665038C8.97907 1.09302 8.27899 1.09177 7.84954 0.662261L7.8454 0.658125C6.97249 -0.214724 5.55227 -0.214724 4.67937 0.658125C4.53374 0.803808 4.47861 1.01698 4.53533 1.21502L5.85038 5.80127C5.13902 6.08482 4.63477 6.78003 4.63477 7.59128C4.63477 8.33142 5.05454 8.97501 5.66832 9.29754L1.33666 16.0878C-0.339119 18.7148 -0.445307 21.9144 1.0526 24.6466C2.55051 27.3789 5.30505 29.0101 8.42105 29.0101H13.5789C16.6949 29.0101 19.4494 27.3789 20.9474 24.6466C22.4453 21.9144 22.3392 18.7148 20.6634 16.0878ZM7.044 1.45946L7.04814 1.4636C7.91804 2.33345 9.33577 2.33583 10.209 1.46876L10.2253 1.45255C10.6563 1.02457 11.3563 1.02582 11.7872 1.45663L11.7899 1.45941C12.6628 2.33226 14.0831 2.33226 14.956 1.45941C15.3111 1.10424 15.8498 1.04174 16.2696 1.27191L15.0133 5.66466H6.99023L5.73059 1.27185C6.15036 1.04174 6.68889 1.10435 7.044 1.45946ZM19.9537 24.1019C18.6578 26.4657 16.2747 27.8769 13.579 27.8769H8.4211C5.72538 27.8769 3.34233 26.4657 2.04643 24.1019C0.750526 21.7381 0.842378 18.9701 2.29212 16.6973L6.87197 9.51779H8.45017C8.76313 9.51779 9.01681 9.26411 9.01681 8.95116C9.01681 8.6382 8.76313 8.38452 8.45017 8.38452H6.56134C6.1239 8.38452 5.76805 8.02867 5.76805 7.59122C5.76805 7.15378 6.1239 6.79793 6.56134 6.79793H6.56321H15.4387C15.8761 6.79793 16.232 7.15378 16.232 7.59122C16.232 8.02867 15.8761 8.38452 15.4387 8.38452H13.5499C13.237 8.38452 12.9833 8.6382 12.9833 8.95116C12.9833 9.26411 13.237 9.51779 13.5499 9.51779H15.1281L19.708 16.6973C21.1577 18.97 21.2496 21.738 19.9537 24.1019Z" fill="#0039A6"/>
<path d="M11.0002 9.51786C11.1493 9.51786 11.2954 9.45723 11.4008 9.35183C11.5062 9.24644 11.5669 9.10025 11.5669 8.95122C11.5669 8.80219 11.5062 8.656 11.4008 8.55061C11.2954 8.44521 11.1493 8.38458 11.0002 8.38458C10.8512 8.38458 10.705 8.44521 10.5996 8.55061C10.4942 8.656 10.4336 8.80219 10.4336 8.95122C10.4336 9.10025 10.4942 9.24644 10.5996 9.35183C10.705 9.45723 10.8511 9.51786 11.0002 9.51786Z" fill="#0039A6"/>
<g clip-path="url(#clip0)">
<path d="M14.4285 16.4286C13.0893 16.4286 11.6428 17.7259 11 18.3756C10.3571 17.7259 8.9107 16.4286 7.57143 16.4286C5.9613 16.4286 5 17.3899 5 19C5 20.6102 5.9613 21.5715 7.57143 21.5715C8.9107 21.5715 10.3571 20.2742 11 19.6244C11.6428 20.2742 13.0893 21.5715 14.4285 21.5715C16.0387 21.5715 17 20.6102 17 19C17 17.3899 16.0387 16.4286 14.4285 16.4286ZM7.5714 20.7143C6.43397 20.7143 5.85711 20.1375 5.85711 19C5.85711 17.8626 6.43397 17.2857 7.5714 17.2857C8.51427 17.2857 9.76568 18.3481 10.412 19C9.76698 19.6527 8.51811 20.7143 7.5714 20.7143ZM14.4285 20.7143C13.4857 20.7143 12.2343 19.6519 11.588 19C12.2308 18.3477 13.4818 17.2857 14.4285 17.2857C15.566 17.2857 16.1428 17.8626 16.1428 19C16.1428 20.1375 15.566 20.7143 14.4285 20.7143Z" fill="#0039A6"/>
</g>
<defs>
<clipPath id="clip0">
<rect width="12" height="12" fill="white" transform="translate(5 13)"/>
</clipPath>
</defs>
</svg>
