<svg width="30" height="30" viewBox="0 0 30 30" fill="none" xmlns="http://www.w3.org/2000/svg">
<path d="M12.3928 28.9816C12.2838 28.8726 12.1326 28.8099 11.9785 28.8099C11.8238 28.8099 11.6732 28.8726 11.5643 28.9816C11.4553 29.0907 11.3926 29.2418 11.3926 29.3959C11.3926 29.55 11.4553 29.7011 11.5643 29.8101C11.6732 29.9191 11.8244 29.9818 11.9785 29.9818C12.1326 29.9818 12.2838 29.9191 12.3928 29.8101C12.5018 29.7011 12.5645 29.55 12.5645 29.3959C12.5645 29.2418 12.5018 29.0906 12.3928 28.9816Z" fill="#5EB7B2"/>
<path d="M3.39844 18.3495C3.07482 18.3495 2.8125 18.6119 2.8125 18.9355V24.3749C2.8125 24.6985 3.07482 24.9609 3.39844 24.9609C3.72205 24.9609 3.98438 24.6985 3.98438 24.3749V18.9355C3.98438 18.6119 3.72205 18.3495 3.39844 18.3495Z" fill="#5EB7B2"/>
<path d="M3.8127 16.0799C3.70371 15.971 3.55254 15.9082 3.39844 15.9082C3.24434 15.9082 3.09316 15.9709 2.98418 16.0799C2.8752 16.1889 2.8125 16.3395 2.8125 16.4941C2.8125 16.6482 2.8752 16.7994 2.98418 16.9084C3.09316 17.0174 3.24434 17.0801 3.39844 17.0801C3.55254 17.0801 3.70371 17.0174 3.8127 16.9084C3.92168 16.7994 3.98438 16.6482 3.98438 16.4941C3.98438 16.34 3.92168 16.1889 3.8127 16.0799Z" fill="#5EB7B2"/>
<path d="M30 15.8608C30 14.4579 28.9883 13.2876 27.6562 13.0391V9.23973C27.6562 7.6243 26.342 6.31004 24.7266 6.31004H21.6647L15.5443 0.18969C15.3155 -0.0390601 14.9445 -0.0390601 14.7156 0.18969L13.3536 1.5517L11.9916 0.18969C11.7628 -0.0390601 11.3918 -0.0390601 11.163 0.18969L5.00625 6.34649C4.94332 6.3234 4.87564 6.31016 4.80469 6.31016H2.92969C1.31426 6.31016 0 7.62442 0 9.23985C0 9.28256 0.00140625 9.32498 0.00322266 9.36723C0.00111328 9.38727 0 9.40772 0 9.42846V27.0523C0 28.6677 1.31426 29.982 2.92969 29.982H9.5117C9.83531 29.982 10.0976 29.7196 10.0976 29.396C10.0976 29.0725 9.83531 28.8101 9.5117 28.8101H2.92969C1.96043 28.8101 1.17188 28.0215 1.17188 27.0523V11.5819C1.66189 11.9506 2.27068 12.1694 2.92969 12.1694L15.1949 12.1813H21.8514C21.8705 12.1813 21.8896 12.1803 21.9086 12.1785C21.9097 12.1784 21.9108 12.1782 21.9119 12.1781C22.7999 12.2656 23.4961 13.0166 23.4961 13.9273V17.5601H16.4062C14.7908 17.5601 13.4766 18.8744 13.4766 20.4898C13.4766 22.1052 14.7908 23.4195 16.4062 23.4195H23.4961V27.0523C23.4961 28.0215 22.7075 28.8101 21.7383 28.8101H14.4336C14.11 28.8101 13.8476 29.0725 13.8476 29.396C13.8476 29.7196 14.11 29.982 14.4336 29.982H21.7383C23.3537 29.982 24.668 28.6677 24.668 27.0523V26.8179H24.7266C26.342 26.8179 27.6562 25.5037 27.6562 23.8882V23.3605C28.9919 23.0883 30 21.9046 30 20.4898V15.9781C30 15.9658 29.9996 15.9536 29.9989 15.9416C29.9996 15.9147 30 15.8878 30 15.8608ZM13.9928 2.57006L15.13 1.43276L16.3856 2.68836C15.6366 3.13948 14.6957 3.15125 13.9364 2.72416C13.9627 2.67518 13.9813 2.62321 13.9928 2.57006ZM1.17188 9.23973C1.17188 8.27047 1.96043 7.48192 2.92969 7.48192H3.87076L1.34754 10.0051C1.2351 9.77363 1.17188 9.51395 1.17188 9.23973ZM2.92969 10.9975C2.66186 10.9975 2.40791 10.9371 2.18051 10.8295L11.5773 1.4327L12.525 2.38039L3.90779 10.9975H2.92969ZM8.45971 10.9975C8.53939 10.8994 8.62406 10.8049 8.71424 10.7148C9.40617 10.0228 10.3262 9.6418 11.3047 9.6418C12.2832 9.6418 13.2033 10.0229 13.8952 10.7148C13.9854 10.8049 14.0701 10.8995 14.1497 10.9975H8.45971ZM20.7254 10.9975H15.5531C15.3318 10.5896 15.0544 10.2167 14.7238 9.88614C13.8105 8.97283 12.5962 8.46986 11.3047 8.46986C10.0131 8.46986 8.79879 8.97283 7.88549 9.88614C7.55484 10.2167 7.27746 10.5896 7.05627 10.9975H5.56506L13.0292 3.53352C13.6546 3.98246 14.3921 4.2077 15.13 4.2077C15.8679 4.2077 16.6055 3.98252 17.2308 3.53352L21.0569 7.35957C20.2879 8.43084 20.1772 9.83158 20.7254 10.9975ZM21.9021 10.716C21.4386 9.94649 21.4386 8.97424 21.9021 8.20479L23.1577 9.46039L21.9021 10.716ZM22.9944 11.281L24.4007 9.87471C24.6295 9.6459 24.6295 9.27489 24.4007 9.04602L22.8366 7.48192H24.7266C25.6958 7.48192 26.4844 8.27047 26.4844 9.23973V17.56H24.668V13.9272C24.668 12.7611 23.983 11.7522 22.9944 11.281ZM26.4844 23.8882C26.4844 24.8574 25.6958 25.646 24.7266 25.646H24.668V23.4194H26.4844V23.8882ZM28.8281 20.4897C28.8281 21.459 28.0396 22.2475 27.0703 22.2475H16.4062C15.437 22.2475 14.6484 21.459 14.6484 20.4897C14.6484 19.5205 15.437 18.7319 16.4062 18.7319H27.1289C27.7642 18.7319 28.3521 18.5245 28.8281 18.1738V20.4897ZM27.6562 17.4758V14.2458C28.3358 14.4682 28.8281 15.108 28.8281 15.8608C28.8281 16.6137 28.3358 17.2534 27.6562 17.4758Z" fill="#5EB7B2"/>
<path d="M16.9377 20.0754C16.8287 19.9664 16.6775 19.9037 16.5234 19.9037C16.3693 19.9037 16.2182 19.9663 16.1092 20.0754C16.0002 20.1844 15.9375 20.3355 15.9375 20.4896C15.9375 20.6437 16.0002 20.7949 16.1092 20.9038C16.2182 21.0128 16.3693 21.0756 16.5234 21.0756C16.6775 21.0756 16.8287 21.0129 16.9377 20.9038C17.0467 20.7949 17.1094 20.6437 17.1094 20.4896C17.1094 20.3355 17.0467 20.1844 16.9377 20.0754Z" fill="#5EB7B2"/>
<path d="M17.2012 7.38858C16.9724 7.15989 16.6014 7.15983 16.3726 7.38858L15.3542 8.40694C15.1254 8.63575 15.1254 9.00677 15.3542 9.23564C15.4686 9.35001 15.6186 9.40726 15.7686 9.40726C15.9185 9.40726 16.0685 9.35001 16.1829 9.23564L17.2012 8.21727C17.43 7.98847 17.4301 7.61751 17.2012 7.38858Z" fill="#5EB7B2"/>
</svg>
